<svg width="115" height="115" viewBox="0 0 115 115" fill="none" xmlns="http://www.w3.org/2000/svg">
<mask id="mask0_1_153" style="mask-type:luminance" maskUnits="userSpaceOnUse" x="0" y="111" width="4" height="4">
<path d="M0 111.724H3.16452V115H0V111.724Z" fill="white"/>
</mask>
<g mask="url(#mask0_1_153)">
<path d="M3.01234 113.496C3.01234 114.329 2.33729 115.004 1.50422 115.004C0.67114 115.004 -0.00390625 114.329 -0.00390625 113.496C-0.00390625 112.664 0.67114 111.989 1.50422 111.989C2.33729 111.989 3.01234 112.664 3.01234 113.496Z" fill="black"/>
</g>
<mask id="mask1_1_153" style="mask-type:luminance" maskUnits="userSpaceOnUse" x="8" y="111" width="4" height="4">
<path d="M8.15918 111.724H11.6554V115H8.15918V111.724Z" fill="white"/>
</mask>
<g mask="url(#mask1_1_153)">
<path d="M11.6261 113.496C11.6261 114.329 10.9511 115.004 10.118 115.004C9.28686 115.004 8.61182 114.329 8.61182 113.496C8.61182 112.664 9.28686 111.989 10.118 111.989C10.9511 111.989 11.6261 112.664 11.6261 113.496Z" fill="black"/>
</g>
<mask id="mask2_1_153" style="mask-type:luminance" maskUnits="userSpaceOnUse" x="17" y="111" width="4" height="4">
<path d="M17.1494 111.724H20.6456V115H17.1494V111.724Z" fill="white"/>
</mask>
<g mask="url(#mask2_1_153)">
<path d="M20.2418 113.496C20.2418 114.329 19.5668 115.004 18.7337 115.004C17.9006 115.004 17.2256 114.329 17.2256 113.496C17.2256 112.664 17.9006 111.989 18.7337 111.989C19.5668 111.989 20.2418 112.664 20.2418 113.496Z" fill="black"/>
</g>
<mask id="mask3_1_153" style="mask-type:luminance" maskUnits="userSpaceOnUse" x="25" y="111" width="5" height="4">
<path d="M25.6401 111.724H29.1363V115H25.6401V111.724Z" fill="white"/>
</mask>
<g mask="url(#mask3_1_153)">
<path d="M28.8554 113.496C28.8554 114.329 28.1803 115.004 27.3472 115.004C26.5161 115.004 25.8411 114.329 25.8411 113.496C25.8411 112.664 26.5161 111.989 27.3472 111.989C28.1803 111.989 28.8554 112.664 28.8554 113.496Z" fill="black"/>
</g>
<mask id="mask4_1_153" style="mask-type:luminance" maskUnits="userSpaceOnUse" x="34" y="111" width="4" height="4">
<path d="M34.1309 111.724H37.6271V115H34.1309V111.724Z" fill="white"/>
</mask>
<g mask="url(#mask4_1_153)">
<path d="M37.4711 113.496C37.4711 114.329 36.796 115.004 35.963 115.004C35.1299 115.004 34.4548 114.329 34.4548 113.496C34.4548 112.664 35.1299 111.989 35.963 111.989C36.796 111.989 37.4711 112.664 37.4711 113.496Z" fill="black"/>
</g>
<mask id="mask5_1_153" style="mask-type:luminance" maskUnits="userSpaceOnUse" x="42" y="111" width="5" height="4">
<path d="M42.6216 111.724H46.1178V115H42.6216V111.724Z" fill="white"/>
</mask>
<g mask="url(#mask5_1_153)">
<path d="M46.0846 113.496C46.0846 114.329 45.4096 115.004 44.5765 115.004C43.7454 115.004 43.0703 114.329 43.0703 113.496C43.0703 112.664 43.7454 111.989 44.5765 111.989C45.4096 111.989 46.0846 112.664 46.0846 113.496Z" fill="black"/>
</g>
<mask id="mask6_1_153" style="mask-type:luminance" maskUnits="userSpaceOnUse" x="51" y="111" width="5" height="4">
<path d="M51.6118 111.724H55.108V115H51.6118V111.724Z" fill="white"/>
</mask>
<g mask="url(#mask6_1_153)">
<path d="M54.7003 113.496C54.7003 114.329 54.0253 115.004 53.1922 115.004C52.3591 115.004 51.6841 114.329 51.6841 113.496C51.6841 112.664 52.3591 111.989 53.1922 111.989C54.0253 111.989 54.7003 112.664 54.7003 113.496Z" fill="black"/>
</g>
<mask id="mask7_1_153" style="mask-type:luminance" maskUnits="userSpaceOnUse" x="60" y="111" width="4" height="4">
<path d="M60.1025 111.724H63.5987V115H60.1025V111.724Z" fill="white"/>
</mask>
<g mask="url(#mask7_1_153)">
<path d="M63.3139 113.496C63.3139 114.329 62.6388 115.004 61.8077 115.004C60.9746 115.004 60.2996 114.329 60.2996 113.496C60.2996 112.664 60.9746 111.989 61.8077 111.989C62.6388 111.989 63.3139 112.664 63.3139 113.496Z" fill="black"/>
</g>
<mask id="mask8_1_153" style="mask-type:luminance" maskUnits="userSpaceOnUse" x="68" y="111" width="5" height="4">
<path d="M68.5933 111.724H72.0895V115H68.5933V111.724Z" fill="white"/>
</mask>
<g mask="url(#mask8_1_153)">
<path d="M71.9296 113.496C71.9296 114.329 71.2545 115.004 70.4215 115.004C69.5903 115.004 68.9153 114.329 68.9153 113.496C68.9153 112.664 69.5903 111.989 70.4215 111.989C71.2545 111.989 71.9296 112.664 71.9296 113.496Z" fill="black"/>
</g>
<mask id="mask9_1_153" style="mask-type:luminance" maskUnits="userSpaceOnUse" x="77" y="111" width="4" height="4">
<path d="M77.084 111.724H80.5802V115H77.084V111.724Z" fill="white"/>
</mask>
<g mask="url(#mask9_1_153)">
<path d="M80.5451 113.496C80.5451 114.329 79.87 115.004 79.0369 115.004C78.2039 115.004 77.5288 114.329 77.5288 113.496C77.5288 112.664 78.2039 111.989 79.0369 111.989C79.87 111.989 80.5451 112.664 80.5451 113.496Z" fill="black"/>
</g>
<mask id="mask10_1_153" style="mask-type:luminance" maskUnits="userSpaceOnUse" x="86" y="111" width="4" height="4">
<path d="M86.0742 111.724H89.5704V115H86.0742V111.724Z" fill="white"/>
</mask>
<g mask="url(#mask10_1_153)">
<path d="M89.1588 113.496C89.1588 114.329 88.4838 115.004 87.6527 115.004C86.8196 115.004 86.1445 114.329 86.1445 113.496C86.1445 112.664 86.8196 111.989 87.6527 111.989C88.4838 111.989 89.1588 112.664 89.1588 113.496Z" fill="black"/>
</g>
<mask id="mask11_1_153" style="mask-type:luminance" maskUnits="userSpaceOnUse" x="94" y="111" width="5" height="4">
<path d="M94.5649 111.724H98.0611V115H94.5649V111.724Z" fill="white"/>
</mask>
<g mask="url(#mask11_1_153)">
<path d="M97.7743 113.496C97.7743 114.329 97.0993 115.004 96.2662 115.004C95.4331 115.004 94.7581 114.329 94.7581 113.496C94.7581 112.664 95.4331 111.989 96.2662 111.989C97.0993 111.989 97.7743 112.664 97.7743 113.496Z" fill="black"/>
</g>
<mask id="mask12_1_153" style="mask-type:luminance" maskUnits="userSpaceOnUse" x="103" y="111" width="4" height="4">
<path d="M103.056 111.724H106.552V115H103.056V111.724Z" fill="white"/>
</mask>
<g mask="url(#mask12_1_153)">
<path d="M106.388 113.496C106.388 114.329 105.713 115.004 104.882 115.004C104.049 115.004 103.374 114.329 103.374 113.496C103.374 112.664 104.049 111.989 104.882 111.989C105.713 111.989 106.388 112.664 106.388 113.496Z" fill="black"/>
</g>
<mask id="mask13_1_153" style="mask-type:luminance" maskUnits="userSpaceOnUse" x="111" y="111" width="4" height="4">
<path d="M111.546 111.724H115V115H111.546V111.724Z" fill="white"/>
</mask>
<g mask="url(#mask13_1_153)">
<path d="M115.004 113.496C115.004 114.329 114.329 115.004 113.495 115.004C112.662 115.004 111.987 114.329 111.987 113.496C111.987 112.664 112.662 111.989 113.495 111.989C114.329 111.989 115.004 112.664 115.004 113.496Z" fill="black"/>
</g>
<mask id="mask14_1_153" style="mask-type:luminance" maskUnits="userSpaceOnUse" x="0" y="103" width="4" height="4">
<path d="M0 103.233H3.16452V106.73H0V103.233Z" fill="white"/>
</mask>
<g mask="url(#mask14_1_153)">
<path d="M3.01234 104.882C3.01234 105.713 2.33729 106.388 1.50422 106.388C0.67114 106.388 -0.00390625 105.713 -0.00390625 104.882C-0.00390625 104.049 0.67114 103.374 1.50422 103.374C2.33729 103.374 3.01234 104.049 3.01234 104.882Z" fill="black"/>
</g>
<path d="M11.6261 104.882C11.6261 105.713 10.9511 106.388 10.118 106.388C9.28686 106.388 8.61182 105.713 8.61182 104.882C8.61182 104.049 9.28686 103.374 10.118 103.374C10.9511 103.374 11.6261 104.049 11.6261 104.882Z" fill="black"/>
<path d="M20.2416 104.882C20.2416 105.713 19.5665 106.388 18.7335 106.388C17.9004 106.388 17.2253 105.713 17.2253 104.882C17.2253 104.049 17.9004 103.374 18.7335 103.374C19.5665 103.374 20.2416 104.049 20.2416 104.882Z" fill="black"/>
<path d="M28.8554 104.882C28.8554 105.713 28.1803 106.388 27.3472 106.388C26.5161 106.388 25.8411 105.713 25.8411 104.882C25.8411 104.049 26.5161 103.374 27.3472 103.374C28.1803 103.374 28.8554 104.049 28.8554 104.882Z" fill="black"/>
<path d="M37.4708 104.882C37.4708 105.713 36.7958 106.388 35.9627 106.388C35.1296 106.388 34.4546 105.713 34.4546 104.882C34.4546 104.049 35.1296 103.374 35.9627 103.374C36.7958 103.374 37.4708 104.049 37.4708 104.882Z" fill="black"/>
<path d="M46.0846 104.882C46.0846 105.713 45.4096 106.388 44.5765 106.388C43.7454 106.388 43.0703 105.713 43.0703 104.882C43.0703 104.049 43.7454 103.374 44.5765 103.374C45.4096 103.374 46.0846 104.049 46.0846 104.882Z" fill="black"/>
<path d="M54.7003 104.882C54.7003 105.713 54.0253 106.388 53.1922 106.388C52.3591 106.388 51.6841 105.713 51.6841 104.882C51.6841 104.049 52.3591 103.374 53.1922 103.374C54.0253 103.374 54.7003 104.049 54.7003 104.882Z" fill="black"/>
<path d="M63.3139 104.882C63.3139 105.713 62.6388 106.388 61.8077 106.388C60.9746 106.388 60.2996 105.713 60.2996 104.882C60.2996 104.049 60.9746 103.374 61.8077 103.374C62.6388 103.374 63.3139 104.049 63.3139 104.882Z" fill="black"/>
<path d="M71.9296 104.882C71.9296 105.713 71.2545 106.388 70.4215 106.388C69.5903 106.388 68.9153 105.713 68.9153 104.882C68.9153 104.049 69.5903 103.374 70.4215 103.374C71.2545 103.374 71.9296 104.049 71.9296 104.882Z" fill="black"/>
<path d="M80.5451 104.882C80.5451 105.713 79.87 106.388 79.0369 106.388C78.2039 106.388 77.5288 105.713 77.5288 104.882C77.5288 104.049 78.2039 103.374 79.0369 103.374C79.87 103.374 80.5451 104.049 80.5451 104.882Z" fill="black"/>
<path d="M89.1588 104.882C89.1588 105.713 88.4838 106.388 87.6527 106.388C86.8196 106.388 86.1445 105.713 86.1445 104.882C86.1445 104.049 86.8196 103.374 87.6527 103.374C88.4838 103.374 89.1588 104.049 89.1588 104.882Z" fill="black"/>
<path d="M97.7743 104.882C97.7743 105.713 97.0993 106.388 96.2662 106.388C95.4331 106.388 94.7581 105.713 94.7581 104.882C94.7581 104.049 95.4331 103.374 96.2662 103.374C97.0993 103.374 97.7743 104.049 97.7743 104.882Z" fill="black"/>
<path d="M106.388 104.882C106.388 105.713 105.713 106.388 104.882 106.388C104.049 106.388 103.374 105.713 103.374 104.882C103.374 104.049 104.049 103.374 104.882 103.374C105.713 103.374 106.388 104.049 106.388 104.882Z" fill="black"/>
<mask id="mask15_1_153" style="mask-type:luminance" maskUnits="userSpaceOnUse" x="0" y="94" width="4" height="5">
<path d="M0 94.7426H3.16452V98.2387H0V94.7426Z" fill="white"/>
</mask>
<g mask="url(#mask15_1_153)">
<path d="M3.01234 96.2665C3.01234 97.0996 2.33729 97.7747 1.50422 97.7747C0.67114 97.7747 -0.00390625 97.0996 -0.00390625 96.2665C-0.00390625 95.4335 0.67114 94.7584 1.50422 94.7584C2.33729 94.7584 3.01234 95.4335 3.01234 96.2665Z" fill="black"/>
</g>
<path d="M11.6261 96.2664C11.6261 97.0995 10.9511 97.7745 10.118 97.7745C9.28686 97.7745 8.61182 97.0995 8.61182 96.2664C8.61182 95.4333 9.28686 94.7583 10.118 94.7583C10.9511 94.7583 11.6261 95.4333 11.6261 96.2664Z" fill="black"/>
<path d="M20.2416 96.2664C20.2416 97.0995 19.5665 97.7745 18.7335 97.7745C17.9004 97.7745 17.2253 97.0995 17.2253 96.2664C17.2253 95.4333 17.9004 94.7583 18.7335 94.7583C19.5665 94.7583 20.2416 95.4333 20.2416 96.2664Z" fill="black"/>
<path d="M28.8554 96.2664C28.8554 97.0995 28.1803 97.7745 27.3472 97.7745C26.5161 97.7745 25.8411 97.0995 25.8411 96.2664C25.8411 95.4333 26.5161 94.7583 27.3472 94.7583C28.1803 94.7583 28.8554 95.4333 28.8554 96.2664Z" fill="black"/>
<path d="M37.4708 96.2664C37.4708 97.0995 36.7958 97.7745 35.9627 97.7745C35.1296 97.7745 34.4546 97.0995 34.4546 96.2664C34.4546 95.4333 35.1296 94.7583 35.9627 94.7583C36.7958 94.7583 37.4708 95.4333 37.4708 96.2664Z" fill="black"/>
<path d="M46.0846 96.2664C46.0846 97.0995 45.4096 97.7745 44.5765 97.7745C43.7454 97.7745 43.0703 97.0995 43.0703 96.2664C43.0703 95.4333 43.7454 94.7583 44.5765 94.7583C45.4096 94.7583 46.0846 95.4333 46.0846 96.2664Z" fill="black"/>
<path d="M54.7003 96.2664C54.7003 97.0995 54.0253 97.7745 53.1922 97.7745C52.3591 97.7745 51.6841 97.0995 51.6841 96.2664C51.6841 95.4333 52.3591 94.7583 53.1922 94.7583C54.0253 94.7583 54.7003 95.4333 54.7003 96.2664Z" fill="black"/>
<path d="M63.3139 96.2664C63.3139 97.0995 62.6388 97.7745 61.8077 97.7745C60.9746 97.7745 60.2996 97.0995 60.2996 96.2664C60.2996 95.4333 60.9746 94.7583 61.8077 94.7583C62.6388 94.7583 63.3139 95.4333 63.3139 96.2664Z" fill="black"/>
<path d="M71.9296 96.2664C71.9296 97.0995 71.2545 97.7745 70.4215 97.7745C69.5903 97.7745 68.9153 97.0995 68.9153 96.2664C68.9153 95.4333 69.5903 94.7583 70.4215 94.7583C71.2545 94.7583 71.9296 95.4333 71.9296 96.2664Z" fill="black"/>
<path d="M80.5451 96.2664C80.5451 97.0995 79.87 97.7745 79.0369 97.7745C78.2039 97.7745 77.5288 97.0995 77.5288 96.2664C77.5288 95.4333 78.2039 94.7583 79.0369 94.7583C79.87 94.7583 80.5451 95.4333 80.5451 96.2664Z" fill="black"/>
<path d="M89.1588 96.2664C89.1588 97.0995 88.4838 97.7745 87.6527 97.7745C86.8196 97.7745 86.1445 97.0995 86.1445 96.2664C86.1445 95.4333 86.8196 94.7583 87.6527 94.7583C88.4838 94.7583 89.1588 95.4333 89.1588 96.2664Z" fill="black"/>
<path d="M97.7743 96.2664C97.7743 97.0995 97.0993 97.7745 96.2662 97.7745C95.4331 97.7745 94.7581 97.0995 94.7581 96.2664C94.7581 95.4333 95.4331 94.7583 96.2662 94.7583C97.0993 94.7583 97.7743 95.4333 97.7743 96.2664Z" fill="black"/>
<mask id="mask16_1_153" style="mask-type:luminance" maskUnits="userSpaceOnUse" x="0" y="85" width="4" height="5">
<path d="M0 85.7523H3.16452V89.2485H0V85.7523Z" fill="white"/>
</mask>
<g mask="url(#mask16_1_153)">
<path d="M3.01234 87.6527C3.01234 88.4857 2.33729 89.1588 1.50422 89.1588C0.67114 89.1588 -0.00390625 88.4857 -0.00390625 87.6527C-0.00390625 86.8196 0.67114 86.1445 1.50422 86.1445C2.33729 86.1445 3.01234 86.8196 3.01234 87.6527Z" fill="black"/>
</g>
<path d="M11.6261 87.6525C11.6261 88.4856 10.9511 89.1587 10.118 89.1587C9.28686 89.1587 8.61182 88.4856 8.61182 87.6525C8.61182 86.8195 9.28686 86.1444 10.118 86.1444C10.9511 86.1444 11.6261 86.8195 11.6261 87.6525Z" fill="black"/>
<path d="M20.2416 87.6525C20.2416 88.4856 19.5665 89.1587 18.7335 89.1587C17.9004 89.1587 17.2253 88.4856 17.2253 87.6525C17.2253 86.8195 17.9004 86.1444 18.7335 86.1444C19.5665 86.1444 20.2416 86.8195 20.2416 87.6525Z" fill="black"/>
<path d="M28.8554 87.6525C28.8554 88.4856 28.1803 89.1587 27.3472 89.1587C26.5161 89.1587 25.8411 88.4856 25.8411 87.6525C25.8411 86.8195 26.5161 86.1444 27.3472 86.1444C28.1803 86.1444 28.8554 86.8195 28.8554 87.6525Z" fill="black"/>
<path d="M37.4708 87.6525C37.4708 88.4856 36.7958 89.1587 35.9627 89.1587C35.1296 89.1587 34.4546 88.4856 34.4546 87.6525C34.4546 86.8195 35.1296 86.1444 35.9627 86.1444C36.7958 86.1444 37.4708 86.8195 37.4708 87.6525Z" fill="black"/>
<path d="M46.0846 87.6525C46.0846 88.4856 45.4096 89.1587 44.5765 89.1587C43.7454 89.1587 43.0703 88.4856 43.0703 87.6525C43.0703 86.8195 43.7454 86.1444 44.5765 86.1444C45.4096 86.1444 46.0846 86.8195 46.0846 87.6525Z" fill="black"/>
<path d="M54.7003 87.6525C54.7003 88.4856 54.0253 89.1587 53.1922 89.1587C52.3591 89.1587 51.6841 88.4856 51.6841 87.6525C51.6841 86.8195 52.3591 86.1444 53.1922 86.1444C54.0253 86.1444 54.7003 86.8195 54.7003 87.6525Z" fill="black"/>
<path d="M63.3139 87.6525C63.3139 88.4856 62.6388 89.1587 61.8077 89.1587C60.9746 89.1587 60.2996 88.4856 60.2996 87.6525C60.2996 86.8195 60.9746 86.1444 61.8077 86.1444C62.6388 86.1444 63.3139 86.8195 63.3139 87.6525Z" fill="black"/>
<path d="M71.9296 87.6525C71.9296 88.4856 71.2545 89.1587 70.4215 89.1587C69.5903 89.1587 68.9153 88.4856 68.9153 87.6525C68.9153 86.8195 69.5903 86.1444 70.4215 86.1444C71.2545 86.1444 71.9296 86.8195 71.9296 87.6525Z" fill="black"/>
<path d="M80.5451 87.6525C80.5451 88.4856 79.87 89.1587 79.0369 89.1587C78.2039 89.1587 77.5288 88.4856 77.5288 87.6525C77.5288 86.8195 78.2039 86.1444 79.0369 86.1444C79.87 86.1444 80.5451 86.8195 80.5451 87.6525Z" fill="black"/>
<path d="M89.1588 87.6525C89.1588 88.4856 88.4838 89.1587 87.6527 89.1587C86.8196 89.1587 86.1445 88.4856 86.1445 87.6525C86.1445 86.8195 86.8196 86.1444 87.6527 86.1444C88.4838 86.1444 89.1588 86.8195 89.1588 87.6525Z" fill="black"/>
<mask id="mask17_1_153" style="mask-type:luminance" maskUnits="userSpaceOnUse" x="0" y="77" width="4" height="4">
<path d="M0 77.2618H3.16452V80.758H0V77.2618Z" fill="white"/>
</mask>
<g mask="url(#mask17_1_153)">
<path d="M3.01234 79.0374C3.01234 79.8705 2.33729 80.5455 1.50422 80.5455C0.67114 80.5455 -0.00390625 79.8705 -0.00390625 79.0374C-0.00390625 78.2043 0.67114 77.5293 1.50422 77.5293C2.33729 77.5293 3.01234 78.2043 3.01234 79.0374Z" fill="black"/>
</g>
<path d="M11.6261 79.0369C11.6261 79.87 10.9511 80.5451 10.118 80.5451C9.28686 80.5451 8.61182 79.87 8.61182 79.0369C8.61182 78.2039 9.28686 77.5288 10.118 77.5288C10.9511 77.5288 11.6261 78.2039 11.6261 79.0369Z" fill="black"/>
<path d="M20.2416 79.0369C20.2416 79.87 19.5665 80.5451 18.7335 80.5451C17.9004 80.5451 17.2253 79.87 17.2253 79.0369C17.2253 78.2039 17.9004 77.5288 18.7335 77.5288C19.5665 77.5288 20.2416 78.2039 20.2416 79.0369Z" fill="black"/>
<path d="M28.8554 79.0369C28.8554 79.87 28.1803 80.5451 27.3472 80.5451C26.5161 80.5451 25.8411 79.87 25.8411 79.0369C25.8411 78.2039 26.5161 77.5288 27.3472 77.5288C28.1803 77.5288 28.8554 78.2039 28.8554 79.0369Z" fill="black"/>
<path d="M37.4708 79.0369C37.4708 79.87 36.7958 80.5451 35.9627 80.5451C35.1296 80.5451 34.4546 79.87 34.4546 79.0369C34.4546 78.2039 35.1296 77.5288 35.9627 77.5288C36.7958 77.5288 37.4708 78.2039 37.4708 79.0369Z" fill="black"/>
<path d="M46.0846 79.0369C46.0846 79.87 45.4096 80.5451 44.5765 80.5451C43.7454 80.5451 43.0703 79.87 43.0703 79.0369C43.0703 78.2039 43.7454 77.5288 44.5765 77.5288C45.4096 77.5288 46.0846 78.2039 46.0846 79.0369Z" fill="black"/>
<path d="M54.7003 79.0369C54.7003 79.87 54.0253 80.5451 53.1922 80.5451C52.3591 80.5451 51.6841 79.87 51.6841 79.0369C51.6841 78.2039 52.3591 77.5288 53.1922 77.5288C54.0253 77.5288 54.7003 78.2039 54.7003 79.0369Z" fill="black"/>
<path d="M63.3139 79.0369C63.3139 79.87 62.6388 80.5451 61.8077 80.5451C60.9746 80.5451 60.2996 79.87 60.2996 79.0369C60.2996 78.2039 60.9746 77.5288 61.8077 77.5288C62.6388 77.5288 63.3139 78.2039 63.3139 79.0369Z" fill="black"/>
<path d="M71.9296 79.0369C71.9296 79.87 71.2545 80.5451 70.4215 80.5451C69.5903 80.5451 68.9153 79.87 68.9153 79.0369C68.9153 78.2039 69.5903 77.5288 70.4215 77.5288C71.2545 77.5288 71.9296 78.2039 71.9296 79.0369Z" fill="black"/>
<path d="M80.5451 79.0369C80.5451 79.87 79.87 80.5451 79.0369 80.5451C78.2039 80.5451 77.5288 79.87 77.5288 79.0369C77.5288 78.2039 78.2039 77.5288 79.0369 77.5288C79.87 77.5288 80.5451 78.2039 80.5451 79.0369Z" fill="black"/>
<mask id="mask18_1_153" style="mask-type:luminance" maskUnits="userSpaceOnUse" x="0" y="68" width="4" height="5">
<path d="M0 68.7709H3.16452V72.2671H0V68.7709Z" fill="white"/>
</mask>
<g mask="url(#mask18_1_153)">
<path d="M3.01234 70.4234C3.01234 71.2545 2.33729 71.9296 1.50422 71.9296C0.67114 71.9296 -0.00390625 71.2545 -0.00390625 70.4234C-0.00390625 69.5903 0.67114 68.9153 1.50422 68.9153C2.33729 68.9153 3.01234 69.5903 3.01234 70.4234Z" fill="black"/>
</g>
<path d="M11.6261 70.4235C11.6261 71.2547 10.9511 71.9297 10.118 71.9297C9.28686 71.9297 8.61182 71.2547 8.61182 70.4235C8.61182 69.5905 9.28686 68.9154 10.118 68.9154C10.9511 68.9154 11.6261 69.5905 11.6261 70.4235Z" fill="black"/>
<path d="M20.2416 70.4235C20.2416 71.2547 19.5665 71.9297 18.7335 71.9297C17.9004 71.9297 17.2253 71.2547 17.2253 70.4235C17.2253 69.5905 17.9004 68.9154 18.7335 68.9154C19.5665 68.9154 20.2416 69.5905 20.2416 70.4235Z" fill="black"/>
<path d="M28.8554 70.4235C28.8554 71.2547 28.1803 71.9297 27.3472 71.9297C26.5161 71.9297 25.8411 71.2547 25.8411 70.4235C25.8411 69.5905 26.5161 68.9154 27.3472 68.9154C28.1803 68.9154 28.8554 69.5905 28.8554 70.4235Z" fill="black"/>
<path d="M37.4708 70.4235C37.4708 71.2547 36.7958 71.9297 35.9627 71.9297C35.1296 71.9297 34.4546 71.2547 34.4546 70.4235C34.4546 69.5905 35.1296 68.9154 35.9627 68.9154C36.7958 68.9154 37.4708 69.5905 37.4708 70.4235Z" fill="black"/>
<path d="M46.0846 70.4235C46.0846 71.2547 45.4096 71.9297 44.5765 71.9297C43.7454 71.9297 43.0703 71.2547 43.0703 70.4235C43.0703 69.5905 43.7454 68.9154 44.5765 68.9154C45.4096 68.9154 46.0846 69.5905 46.0846 70.4235Z" fill="black"/>
<path d="M54.7003 70.4235C54.7003 71.2547 54.0253 71.9297 53.1922 71.9297C52.3591 71.9297 51.6841 71.2547 51.6841 70.4235C51.6841 69.5905 52.3591 68.9154 53.1922 68.9154C54.0253 68.9154 54.7003 69.5905 54.7003 70.4235Z" fill="black"/>
<path d="M63.3139 70.4235C63.3139 71.2547 62.6388 71.9297 61.8077 71.9297C60.9746 71.9297 60.2996 71.2547 60.2996 70.4235C60.2996 69.5905 60.9746 68.9154 61.8077 68.9154C62.6388 68.9154 63.3139 69.5905 63.3139 70.4235Z" fill="black"/>
<path d="M71.9296 70.4235C71.9296 71.2547 71.2545 71.9297 70.4215 71.9297C69.5903 71.9297 68.9153 71.2547 68.9153 70.4235C68.9153 69.5905 69.5903 68.9154 70.4215 68.9154C71.2545 68.9154 71.9296 69.5905 71.9296 70.4235Z" fill="black"/>
<mask id="mask19_1_153" style="mask-type:luminance" maskUnits="userSpaceOnUse" x="0" y="60" width="4" height="4">
<path d="M0 60.28H3.16452V63.7762H0V60.28Z" fill="white"/>
</mask>
<g mask="url(#mask19_1_153)">
<path d="M3.01234 61.8076C3.01234 62.6406 2.33729 63.3157 1.50422 63.3157C0.67114 63.3157 -0.00390625 62.6406 -0.00390625 61.8076C-0.00390625 60.9745 0.67114 60.2994 1.50422 60.2994C2.33729 60.2994 3.01234 60.9745 3.01234 61.8076Z" fill="black"/>
</g>
<path d="M11.6261 61.8079C11.6261 62.641 10.9511 63.3161 10.118 63.3161C9.28686 63.3161 8.61182 62.641 8.61182 61.8079C8.61182 60.9749 9.28686 60.2998 10.118 60.2998C10.9511 60.2998 11.6261 60.9749 11.6261 61.8079Z" fill="black"/>
<path d="M20.2416 61.8079C20.2416 62.641 19.5665 63.3161 18.7335 63.3161C17.9004 63.3161 17.2253 62.641 17.2253 61.8079C17.2253 60.9749 17.9004 60.2998 18.7335 60.2998C19.5665 60.2998 20.2416 60.9749 20.2416 61.8079Z" fill="black"/>
<path d="M28.8554 61.8079C28.8554 62.641 28.1803 63.3161 27.3472 63.3161C26.5161 63.3161 25.8411 62.641 25.8411 61.8079C25.8411 60.9749 26.5161 60.2998 27.3472 60.2998C28.1803 60.2998 28.8554 60.9749 28.8554 61.8079Z" fill="black"/>
<path d="M37.4708 61.8079C37.4708 62.641 36.7958 63.3161 35.9627 63.3161C35.1296 63.3161 34.4546 62.641 34.4546 61.8079C34.4546 60.9749 35.1296 60.2998 35.9627 60.2998C36.7958 60.2998 37.4708 60.9749 37.4708 61.8079Z" fill="black"/>
<path d="M46.0846 61.8079C46.0846 62.641 45.4096 63.3161 44.5765 63.3161C43.7454 63.3161 43.0703 62.641 43.0703 61.8079C43.0703 60.9749 43.7454 60.2998 44.5765 60.2998C45.4096 60.2998 46.0846 60.9749 46.0846 61.8079Z" fill="black"/>
<path d="M54.7003 61.8079C54.7003 62.641 54.0253 63.3161 53.1922 63.3161C52.3591 63.3161 51.6841 62.641 51.6841 61.8079C51.6841 60.9749 52.3591 60.2998 53.1922 60.2998C54.0253 60.2998 54.7003 60.9749 54.7003 61.8079Z" fill="black"/>
<path d="M63.3139 61.8079C63.3139 62.641 62.6388 63.3161 61.8077 63.3161C60.9746 63.3161 60.2996 62.641 60.2996 61.8079C60.2996 60.9749 60.9746 60.2998 61.8077 60.2998C62.6388 60.2998 63.3139 60.9749 63.3139 61.8079Z" fill="black"/>
<mask id="mask20_1_153" style="mask-type:luminance" maskUnits="userSpaceOnUse" x="0" y="51" width="4" height="4">
<path d="M0 51.2898H3.16452V54.786H0V51.2898Z" fill="white"/>
</mask>
<g mask="url(#mask20_1_153)">
<path d="M3.01234 53.1942C3.01234 54.0253 2.33729 54.7003 1.50422 54.7003C0.67114 54.7003 -0.00390625 54.0253 -0.00390625 53.1942C-0.00390625 52.3611 0.67114 51.686 1.50422 51.686C2.33729 51.686 3.01234 52.3611 3.01234 53.1942Z" fill="black"/>
</g>
<path d="M11.6261 53.1942C11.6261 54.0253 10.9511 54.7003 10.118 54.7003C9.28686 54.7003 8.61182 54.0253 8.61182 53.1942C8.61182 52.3611 9.28686 51.686 10.118 51.686C10.9511 51.686 11.6261 52.3611 11.6261 53.1942Z" fill="black"/>
<path d="M20.2416 53.1942C20.2416 54.0253 19.5665 54.7003 18.7335 54.7003C17.9004 54.7003 17.2253 54.0253 17.2253 53.1942C17.2253 52.3611 17.9004 51.686 18.7335 51.686C19.5665 51.686 20.2416 52.3611 20.2416 53.1942Z" fill="black"/>
<path d="M28.8554 53.1942C28.8554 54.0253 28.1803 54.7003 27.3472 54.7003C26.5161 54.7003 25.8411 54.0253 25.8411 53.1942C25.8411 52.3611 26.5161 51.686 27.3472 51.686C28.1803 51.686 28.8554 52.3611 28.8554 53.1942Z" fill="black"/>
<path d="M37.4708 53.1942C37.4708 54.0253 36.7958 54.7003 35.9627 54.7003C35.1296 54.7003 34.4546 54.0253 34.4546 53.1942C34.4546 52.3611 35.1296 51.686 35.9627 51.686C36.7958 51.686 37.4708 52.3611 37.4708 53.1942Z" fill="black"/>
<path d="M46.0846 53.1942C46.0846 54.0253 45.4096 54.7003 44.5765 54.7003C43.7454 54.7003 43.0703 54.0253 43.0703 53.1942C43.0703 52.3611 43.7454 51.686 44.5765 51.686C45.4096 51.686 46.0846 52.3611 46.0846 53.1942Z" fill="black"/>
<path d="M54.7003 53.1942C54.7003 54.0253 54.0253 54.7003 53.1922 54.7003C52.3591 54.7003 51.6841 54.0253 51.6841 53.1942C51.6841 52.3611 52.3591 51.686 53.1922 51.686C54.0253 51.686 54.7003 52.3611 54.7003 53.1942Z" fill="black"/>
<mask id="mask21_1_153" style="mask-type:luminance" maskUnits="userSpaceOnUse" x="0" y="42" width="4" height="5">
<path d="M0 42.7993H3.16452V46.2955H0V42.7993Z" fill="white"/>
</mask>
<g mask="url(#mask21_1_153)">
<path d="M3.01234 44.5786C3.01234 45.4116 2.33729 46.0867 1.50422 46.0867C0.67114 46.0867 -0.00390625 45.4116 -0.00390625 44.5786C-0.00390625 43.7455 0.67114 43.0704 1.50422 43.0704C2.33729 43.0704 3.01234 43.7455 3.01234 44.5786Z" fill="black"/>
</g>
<path d="M11.6261 44.5786C11.6261 45.4116 10.9511 46.0867 10.118 46.0867C9.28686 46.0867 8.61182 45.4116 8.61182 44.5786C8.61182 43.7455 9.28686 43.0704 10.118 43.0704C10.9511 43.0704 11.6261 43.7455 11.6261 44.5786Z" fill="black"/>
<path d="M20.2416 44.5786C20.2416 45.4116 19.5665 46.0867 18.7335 46.0867C17.9004 46.0867 17.2253 45.4116 17.2253 44.5786C17.2253 43.7455 17.9004 43.0704 18.7335 43.0704C19.5665 43.0704 20.2416 43.7455 20.2416 44.5786Z" fill="black"/>
<path d="M28.8554 44.5786C28.8554 45.4116 28.1803 46.0867 27.3472 46.0867C26.5161 46.0867 25.8411 45.4116 25.8411 44.5786C25.8411 43.7455 26.5161 43.0704 27.3472 43.0704C28.1803 43.0704 28.8554 43.7455 28.8554 44.5786Z" fill="black"/>
<path d="M37.4708 44.5786C37.4708 45.4116 36.7958 46.0867 35.9627 46.0867C35.1296 46.0867 34.4546 45.4116 34.4546 44.5786C34.4546 43.7455 35.1296 43.0704 35.9627 43.0704C36.7958 43.0704 37.4708 43.7455 37.4708 44.5786Z" fill="black"/>
<path d="M46.0846 44.5786C46.0846 45.4116 45.4096 46.0867 44.5765 46.0867C43.7454 46.0867 43.0703 45.4116 43.0703 44.5786C43.0703 43.7455 43.7454 43.0704 44.5765 43.0704C45.4096 43.0704 46.0846 43.7455 46.0846 44.5786Z" fill="black"/>
<mask id="mask22_1_153" style="mask-type:luminance" maskUnits="userSpaceOnUse" x="0" y="34" width="4" height="4">
<path d="M0 34.3085H3.16452V37.8047H0V34.3085Z" fill="white"/>
</mask>
<g mask="url(#mask22_1_153)">
<path d="M3.01234 35.963C3.01234 36.796 2.33729 37.4711 1.50422 37.4711C0.67114 37.4711 -0.00390625 36.796 -0.00390625 35.963C-0.00390625 35.1318 0.67114 34.4568 1.50422 34.4568C2.33729 34.4568 3.01234 35.1318 3.01234 35.963Z" fill="black"/>
</g>
<path d="M11.6261 35.9628C11.6261 36.7959 10.9511 37.471 10.118 37.471C9.28686 37.471 8.61182 36.7959 8.61182 35.9628C8.61182 35.1317 9.28686 34.4567 10.118 34.4567C10.9511 34.4567 11.6261 35.1317 11.6261 35.9628Z" fill="black"/>
<path d="M20.2416 35.9628C20.2416 36.7959 19.5665 37.471 18.7335 37.471C17.9004 37.471 17.2253 36.7959 17.2253 35.9628C17.2253 35.1317 17.9004 34.4567 18.7335 34.4567C19.5665 34.4567 20.2416 35.1317 20.2416 35.9628Z" fill="black"/>
<path d="M28.8554 35.9628C28.8554 36.7959 28.1803 37.471 27.3472 37.471C26.5161 37.471 25.8411 36.7959 25.8411 35.9628C25.8411 35.1317 26.5161 34.4567 27.3472 34.4567C28.1803 34.4567 28.8554 35.1317 28.8554 35.9628Z" fill="black"/>
<path d="M37.4708 35.9628C37.4708 36.7959 36.7958 37.471 35.9627 37.471C35.1296 37.471 34.4546 36.7959 34.4546 35.9628C34.4546 35.1317 35.1296 34.4567 35.9627 34.4567C36.7958 34.4567 37.4708 35.1317 37.4708 35.9628Z" fill="black"/>
<mask id="mask23_1_153" style="mask-type:luminance" maskUnits="userSpaceOnUse" x="0" y="25" width="4" height="5">
<path d="M0 25.8176H3.16452V29.3138H0V25.8176Z" fill="white"/>
</mask>
<g mask="url(#mask23_1_153)">
<path d="M3.01234 27.3491C3.01234 28.1802 2.33729 28.8552 1.50422 28.8552C0.67114 28.8552 -0.00390625 28.1802 -0.00390625 27.3491C-0.00390625 26.516 0.67114 25.8409 1.50422 25.8409C2.33729 25.8409 3.01234 26.516 3.01234 27.3491Z" fill="black"/>
</g>
<path d="M11.6261 27.3491C11.6261 28.1802 10.9511 28.8552 10.118 28.8552C9.28686 28.8552 8.61182 28.1802 8.61182 27.3491C8.61182 26.516 9.28686 25.8409 10.118 25.8409C10.9511 25.8409 11.6261 26.516 11.6261 27.3491Z" fill="black"/>
<path d="M20.2416 27.3491C20.2416 28.1802 19.5665 28.8552 18.7335 28.8552C17.9004 28.8552 17.2253 28.1802 17.2253 27.3491C17.2253 26.516 17.9004 25.8409 18.7335 25.8409C19.5665 25.8409 20.2416 26.516 20.2416 27.3491Z" fill="black"/>
<path d="M28.8554 27.3491C28.8554 28.1802 28.1803 28.8552 27.3472 28.8552C26.5161 28.8552 25.8411 28.1802 25.8411 27.3491C25.8411 26.516 26.5161 25.8409 27.3472 25.8409C28.1803 25.8409 28.8554 26.516 28.8554 27.3491Z" fill="black"/>
<mask id="mask24_1_153" style="mask-type:luminance" maskUnits="userSpaceOnUse" x="0" y="16" width="4" height="5">
<path d="M0 16.8274H3.16452V20.3236H0V16.8274Z" fill="white"/>
</mask>
<g mask="url(#mask24_1_153)">
<path d="M3.01234 18.7335C3.01234 19.5665 2.33729 20.2416 1.50422 20.2416C0.67114 20.2416 -0.00390625 19.5665 -0.00390625 18.7335C-0.00390625 17.9004 0.67114 17.2253 1.50422 17.2253C2.33729 17.2253 3.01234 17.9004 3.01234 18.7335Z" fill="black"/>
</g>
<path d="M11.6261 18.7335C11.6261 19.5665 10.9511 20.2416 10.118 20.2416C9.28686 20.2416 8.61182 19.5665 8.61182 18.7335C8.61182 17.9004 9.28686 17.2253 10.118 17.2253C10.9511 17.2253 11.6261 17.9004 11.6261 18.7335Z" fill="black"/>
<path d="M20.2416 18.7335C20.2416 19.5665 19.5665 20.2416 18.7335 20.2416C17.9004 20.2416 17.2253 19.5665 17.2253 18.7335C17.2253 17.9004 17.9004 17.2253 18.7335 17.2253C19.5665 17.2253 20.2416 17.9004 20.2416 18.7335Z" fill="black"/>
<mask id="mask25_1_153" style="mask-type:luminance" maskUnits="userSpaceOnUse" x="0" y="8" width="4" height="4">
<path d="M0 8.33691H3.16452V11.8331H0V8.33691Z" fill="white"/>
</mask>
<g mask="url(#mask25_1_153)">
<path d="M3.01234 10.1181C3.01234 10.9512 2.33729 11.6262 1.50422 11.6262C0.67114 11.6262 -0.00390625 10.9512 -0.00390625 10.1181C-0.00390625 9.28698 0.67114 8.61194 1.50422 8.61194C2.33729 8.61194 3.01234 9.28698 3.01234 10.1181Z" fill="black"/>
</g>
<path d="M11.6261 10.1181C11.6261 10.9512 10.9511 11.6262 10.118 11.6262C9.28686 11.6262 8.61182 10.9512 8.61182 10.1181C8.61182 9.28698 9.28686 8.61194 10.118 8.61194C10.9511 8.61194 11.6261 9.28698 11.6261 10.1181Z" fill="black"/>
<mask id="mask26_1_153" style="mask-type:luminance" maskUnits="userSpaceOnUse" x="0" y="0" width="4" height="4">
<path d="M0 0H3.16452V3.34206H0V0Z" fill="white"/>
</mask>
<g mask="url(#mask26_1_153)">
<path d="M3.01234 1.50409C3.01234 2.33717 2.33729 3.01222 1.50422 3.01222C0.67114 3.01222 -0.00390625 2.33717 -0.00390625 1.50409C-0.00390625 0.671018 0.67114 -0.00402832 1.50422 -0.00402832C2.33729 -0.00402832 3.01234 0.671018 3.01234 1.50409Z" fill="black"/>
</g>
</svg>
