<svg width="431" height="431" viewBox="0 0 431 431" fill="none" xmlns="http://www.w3.org/2000/svg">
<rect y="215.5" width="304.763" height="304.763" rx="2" transform="rotate(-45 0 215.5)" fill="black"/>
<rect x="114.419" y="319.291" width="143.346" height="143.346" rx="2" transform="rotate(-45 114.419 319.291)" fill="white"/>
<rect x="114.419" y="112.301" width="143.346" height="143.346" rx="2" transform="rotate(-45 114.419 112.301)" fill="white"/>
<rect x="166.693" y="63.147" width="69.3066" height="69.3066" rx="2" transform="rotate(-45 166.693 63.147)" fill="black"/>
<rect x="166.693" y="161.293" width="69.3066" height="69.3066" rx="2" transform="rotate(-45 166.693 161.293)" fill="black"/>
<mask id="mask0_1_407" style="mask-type:luminance" maskUnits="userSpaceOnUse" x="222" y="140" width="175" height="175">
<path d="M320.317 314.276L222.022 215.073L297.782 140.006L396.077 239.21L320.317 314.276Z" fill="white"/>
</mask>
<g mask="url(#mask0_1_407)">
<path d="M222.534 214.581L248.166 189.183C275.53 162.07 319.813 162.287 346.912 189.636C374.011 216.986 373.805 261.279 346.454 288.38L320.821 313.777C320.757 313.841 320.683 313.889 320.598 313.925C320.515 313.959 320.429 313.975 320.338 313.976C320.247 313.974 320.16 313.956 320.076 313.922C319.993 313.887 319.92 313.837 319.857 313.773C319.793 313.709 319.743 313.635 319.709 313.552C319.676 313.467 319.659 313.38 319.659 313.291C319.66 313.199 319.677 313.113 319.712 313.03C319.748 312.946 319.797 312.872 319.861 312.808L345.494 287.41C372.31 260.84 372.512 217.409 345.944 190.595C319.375 163.78 275.942 163.581 249.125 190.151L223.493 215.549C223.428 215.613 223.355 215.662 223.269 215.696C223.186 215.731 223.1 215.747 223.009 215.748C222.919 215.746 222.833 215.729 222.749 215.695C222.664 215.659 222.592 215.609 222.528 215.545C222.464 215.48 222.415 215.407 222.381 215.324C222.348 215.239 222.33 215.152 222.331 215.063C222.332 214.972 222.348 214.885 222.383 214.802C222.419 214.718 222.469 214.645 222.534 214.581ZM339.241 197.237C316.257 174.04 278.683 173.87 255.484 196.857L230.017 222.09C229.953 222.154 229.903 222.226 229.866 222.311C229.831 222.394 229.814 222.482 229.814 222.571C229.814 222.661 229.831 222.748 229.864 222.833C229.898 222.916 229.948 222.989 230.011 223.053C230.075 223.118 230.148 223.168 230.232 223.204C230.316 223.238 230.402 223.255 230.493 223.257C230.582 223.257 230.669 223.239 230.753 223.205C230.839 223.171 230.912 223.122 230.976 223.058L256.448 197.819C279.114 175.361 315.82 175.527 338.277 198.192C360.733 220.855 360.559 257.559 337.893 280.017L312.421 305.256C312.357 305.32 312.308 305.394 312.272 305.478C312.237 305.561 312.219 305.648 312.219 305.739C312.219 305.828 312.237 305.915 312.269 306C312.304 306.083 312.353 306.156 312.417 306.221C312.481 306.285 312.553 306.335 312.636 306.37C312.722 306.405 312.807 306.422 312.898 306.424C312.988 306.424 313.075 306.407 313.158 306.372C313.243 306.337 313.317 306.289 313.382 306.225L338.853 280.987C362.053 258 362.232 220.44 339.241 197.237ZM331.575 204.833C312.702 185.787 281.851 185.65 262.808 204.518L237.499 229.595C237.435 229.659 237.385 229.731 237.35 229.814C237.315 229.897 237.298 229.986 237.297 230.075C237.297 230.165 237.313 230.253 237.347 230.336C237.382 230.42 237.431 230.493 237.495 230.557C237.558 230.621 237.631 230.672 237.715 230.708C237.798 230.743 237.887 230.76 237.976 230.76C238.066 230.761 238.153 230.743 238.237 230.71C238.321 230.676 238.394 230.627 238.458 230.563L263.772 205.481C282.285 187.137 312.268 187.276 330.611 205.788C348.952 224.299 348.813 254.279 330.299 272.623L304.985 297.705C304.921 297.769 304.872 297.843 304.837 297.926C304.802 298.009 304.784 298.096 304.785 298.187C304.785 298.276 304.801 298.364 304.835 298.448C304.869 298.531 304.919 298.604 304.982 298.669C305.046 298.733 305.119 298.783 305.202 298.818C305.285 298.853 305.373 298.87 305.464 298.872C305.553 298.872 305.64 298.855 305.724 298.82C305.807 298.786 305.881 298.738 305.946 298.674L331.259 273.592C350.305 254.721 350.448 223.874 331.578 204.83L331.575 204.833ZM323.908 212.43C323.468 211.989 323.019 211.558 322.56 211.139C322.101 210.72 321.631 210.312 321.152 209.916C320.673 209.52 320.184 209.135 319.686 208.763C319.187 208.391 318.68 208.03 318.165 207.682C317.649 207.335 317.124 206.999 316.592 206.678C316.061 206.356 315.52 206.047 314.974 205.752C314.426 205.457 313.871 205.174 313.31 204.907C312.749 204.638 312.182 204.385 311.607 204.144C311.032 203.903 310.454 203.677 309.87 203.466C309.285 203.253 308.695 203.056 308.101 202.873C307.507 202.69 306.908 202.522 306.304 202.368C305.701 202.214 305.095 202.076 304.486 201.952C303.876 201.827 303.264 201.718 302.649 201.625C302.035 201.53 301.417 201.451 300.798 201.387C300.179 201.323 299.559 201.275 298.94 201.242C298.318 201.208 297.697 201.19 297.075 201.187C296.452 201.185 295.831 201.197 295.209 201.224C294.587 201.252 293.967 201.294 293.347 201.353C292.728 201.411 292.111 201.483 291.495 201.573C290.879 201.661 290.266 201.765 289.656 201.882C289.044 201.999 288.436 202.134 287.834 202.282C287.229 202.43 286.628 202.592 286.032 202.77C285.437 202.948 284.845 203.139 284.258 203.346C283.671 203.554 283.089 203.774 282.513 204.008C281.938 204.244 281.367 204.494 280.805 204.756C280.24 205.019 279.684 205.296 279.132 205.585C278.582 205.875 278.04 206.179 277.505 206.497C276.97 206.813 276.442 207.142 275.922 207.487C275.403 207.829 274.893 208.183 274.392 208.552C273.891 208.919 273.397 209.298 272.913 209.691C272.43 210.083 271.958 210.485 271.494 210.902C271.031 211.317 270.578 211.743 270.136 212.181L244.983 237.104C244.918 237.168 244.868 237.24 244.833 237.323C244.798 237.406 244.781 237.495 244.781 237.584C244.78 237.674 244.797 237.762 244.831 237.845C244.865 237.929 244.915 238.002 244.978 238.066C245.042 238.13 245.115 238.181 245.199 238.217C245.282 238.252 245.37 238.269 245.46 238.269C245.549 238.27 245.636 238.252 245.721 238.219C245.804 238.185 245.877 238.135 245.942 238.072L271.095 213.149C271.52 212.72 271.956 212.301 272.4 211.894C272.846 211.487 273.301 211.09 273.767 210.705C274.231 210.319 274.705 209.947 275.189 209.584C275.671 209.223 276.164 208.875 276.665 208.537C277.165 208.199 277.675 207.875 278.191 207.562C278.708 207.249 279.232 206.951 279.763 206.664C280.296 206.378 280.833 206.106 281.378 205.846C281.923 205.586 282.474 205.341 283.032 205.106C283.588 204.874 284.151 204.655 284.718 204.451C285.287 204.247 285.859 204.055 286.437 203.88C287.013 203.703 287.596 203.541 288.18 203.393C288.766 203.246 289.355 203.113 289.947 202.993C290.538 202.875 291.134 202.772 291.73 202.682C292.327 202.593 292.926 202.519 293.526 202.459C294.128 202.398 294.729 202.354 295.332 202.323C295.935 202.293 296.539 202.278 297.143 202.279C297.747 202.279 298.349 202.293 298.952 202.323C299.554 202.352 300.157 202.397 300.758 202.456C301.359 202.515 301.957 202.59 302.554 202.678C303.153 202.768 303.747 202.872 304.338 202.99C304.931 203.108 305.519 203.241 306.105 203.388C306.689 203.535 307.271 203.698 307.849 203.873C308.427 204.05 308.999 204.239 309.566 204.444C310.133 204.649 310.697 204.868 311.255 205.099C311.811 205.332 312.363 205.578 312.908 205.838C313.453 206.097 313.991 206.37 314.523 206.655C315.054 206.941 315.58 207.241 316.095 207.553C316.613 207.865 317.121 208.189 317.622 208.526C318.122 208.863 318.616 209.212 319.099 209.574C319.582 209.936 320.056 210.309 320.521 210.693C320.987 211.078 321.442 211.473 321.886 211.881C322.333 212.288 322.768 212.706 323.193 213.135C323.617 213.563 324.032 214.003 324.435 214.453C324.838 214.901 325.23 215.361 325.61 215.829C325.991 216.298 326.36 216.776 326.717 217.262C327.074 217.749 327.417 218.244 327.752 218.749C328.083 219.253 328.403 219.764 328.71 220.285C329.018 220.803 329.311 221.33 329.592 221.864C329.874 222.4 330.141 222.94 330.396 223.487C330.651 224.035 330.891 224.588 331.119 225.147C331.345 225.707 331.558 226.271 331.757 226.84C331.958 227.411 332.142 227.985 332.314 228.564C332.484 229.144 332.64 229.726 332.783 230.312C332.923 230.899 333.052 231.489 333.164 232.082C333.277 232.675 333.376 233.271 333.459 233.868C333.542 234.466 333.61 235.065 333.664 235.667C333.718 236.269 333.757 236.871 333.781 237.474C333.805 238.077 333.815 238.681 333.81 239.285C333.803 239.887 333.783 240.491 333.748 241.093C333.712 241.697 333.662 242.297 333.596 242.899C333.531 243.499 333.451 244.097 333.356 244.693C333.261 245.289 333.151 245.882 333.028 246.473C332.904 247.065 332.764 247.651 332.612 248.235C332.46 248.819 332.291 249.399 332.11 249.975C331.928 250.55 331.733 251.121 331.523 251.688C331.313 252.253 331.089 252.814 330.852 253.369C330.613 253.925 330.362 254.474 330.097 255.016C329.833 255.559 329.555 256.093 329.264 256.622C328.973 257.151 328.669 257.672 328.351 258.186C328.035 258.7 327.705 259.205 327.364 259.704C327.021 260.202 326.667 260.69 326.301 261.169C325.934 261.65 325.557 262.12 325.169 262.582C324.779 263.044 324.378 263.495 323.966 263.936C323.556 264.378 323.133 264.81 322.699 265.23L297.546 290.153C297.482 290.217 297.433 290.291 297.398 290.374C297.363 290.457 297.344 290.544 297.345 290.634C297.345 290.724 297.361 290.812 297.395 290.896C297.429 290.979 297.479 291.052 297.543 291.116C297.606 291.181 297.679 291.231 297.762 291.266C297.845 291.301 297.933 291.318 298.024 291.319C298.114 291.32 298.201 291.302 298.284 291.268C298.367 291.234 298.442 291.186 298.506 291.122L323.659 266.199C324.101 265.761 324.532 265.312 324.951 264.853C325.37 264.392 325.778 263.924 326.176 263.444C326.572 262.964 326.955 262.475 327.329 261.977C327.701 261.479 328.061 260.971 328.408 260.455C328.756 259.94 329.09 259.415 329.413 258.883C329.734 258.351 330.042 257.811 330.338 257.264C330.633 256.716 330.916 256.161 331.184 255.601C331.452 255.039 331.707 254.471 331.946 253.897C332.188 253.324 332.413 252.744 332.626 252.159C332.839 251.574 333.036 250.984 333.219 250.39C333.402 249.796 333.57 249.197 333.725 248.595C333.879 247.991 334.017 247.386 334.141 246.776C334.266 246.166 334.375 245.554 334.468 244.939C334.562 244.324 334.64 243.706 334.705 243.087C334.768 242.47 334.818 241.849 334.85 241.229C334.884 240.607 334.902 239.986 334.905 239.364C334.908 238.742 334.895 238.12 334.867 237.498C334.839 236.876 334.797 236.256 334.739 235.636C334.682 235.018 334.609 234.4 334.521 233.784C334.433 233.168 334.33 232.555 334.211 231.944C334.092 231.333 333.959 230.726 333.811 230.121C333.663 229.517 333.499 228.917 333.322 228.321C333.145 227.724 332.952 227.134 332.745 226.547C332.539 225.959 332.318 225.378 332.084 224.802C331.849 224.226 331.601 223.656 331.337 223.092C331.073 222.528 330.797 221.972 330.507 221.421C330.216 220.871 329.913 220.329 329.597 219.794C329.278 219.259 328.949 218.731 328.606 218.213C328.264 217.693 327.908 217.182 327.541 216.68C327.172 216.18 326.793 215.687 326.401 215.204C326.01 214.721 325.606 214.247 325.19 213.783C324.775 213.321 324.35 212.868 323.912 212.426L323.908 212.43ZM316.238 220.029C315.604 219.391 314.942 218.787 314.251 218.216C313.559 217.643 312.841 217.106 312.096 216.604C311.35 216.103 310.584 215.639 309.793 215.213C309.003 214.786 308.194 214.401 307.365 214.053C306.537 213.706 305.694 213.4 304.837 213.137C303.979 212.872 303.11 212.65 302.229 212.471C301.349 212.293 300.463 212.157 299.57 212.065C298.677 211.973 297.782 211.926 296.883 211.922C295.985 211.918 295.09 211.957 294.195 212.041C293.301 212.124 292.414 212.252 291.532 212.423C290.651 212.593 289.78 212.806 288.919 213.063C288.058 213.32 287.212 213.619 286.381 213.958C285.551 214.297 284.737 214.675 283.943 215.095C283.149 215.515 282.378 215.971 281.628 216.466C280.878 216.961 280.155 217.491 279.458 218.057C278.761 218.622 278.092 219.221 277.455 219.853L252.466 244.613C252.402 244.676 252.352 244.749 252.317 244.832C252.282 244.915 252.265 245.003 252.264 245.093C252.264 245.182 252.28 245.271 252.314 245.354C252.348 245.437 252.398 245.511 252.462 245.575C252.525 245.639 252.598 245.689 252.682 245.726C252.765 245.761 252.853 245.778 252.943 245.778C253.033 245.778 253.12 245.761 253.204 245.728C253.288 245.694 253.361 245.644 253.425 245.581L278.419 220.816C279.025 220.215 279.659 219.646 280.323 219.108C280.984 218.569 281.671 218.065 282.383 217.593C283.095 217.122 283.828 216.686 284.582 216.288C285.338 215.889 286.109 215.529 286.9 215.206C287.69 214.882 288.493 214.598 289.312 214.355C290.129 214.11 290.957 213.907 291.794 213.745C292.634 213.582 293.477 213.461 294.327 213.38C295.177 213.302 296.028 213.264 296.882 213.268C297.736 213.27 298.586 213.316 299.435 213.405C300.285 213.491 301.127 213.621 301.963 213.791C302.799 213.961 303.626 214.171 304.441 214.423C305.256 214.675 306.058 214.965 306.845 215.297C307.633 215.627 308.401 215.993 309.153 216.4C309.902 216.806 310.632 217.247 311.34 217.725C312.048 218.203 312.73 218.714 313.386 219.258C314.044 219.801 314.673 220.377 315.274 220.984C315.874 221.589 316.445 222.224 316.981 222.887C317.521 223.549 318.026 224.236 318.497 224.949C318.967 225.659 319.401 226.393 319.802 227.147C320.2 227.902 320.562 228.675 320.883 229.464C321.207 230.254 321.49 231.059 321.734 231.876C321.979 232.694 322.181 233.522 322.343 234.36C322.507 235.199 322.628 236.041 322.708 236.892C322.787 237.741 322.825 238.592 322.821 239.446C322.816 240.3 322.771 241.152 322.684 242C322.596 242.849 322.468 243.691 322.296 244.528C322.126 245.364 321.915 246.19 321.665 247.006C321.413 247.822 321.121 248.622 320.791 249.41C320.46 250.197 320.093 250.965 319.687 251.717C319.281 252.468 318.839 253.196 318.361 253.904C317.885 254.613 317.374 255.295 316.829 255.952C316.284 256.609 315.709 257.237 315.102 257.839L290.109 282.603C290.044 282.667 289.995 282.741 289.96 282.824C289.926 282.907 289.907 282.994 289.908 283.085C289.908 283.174 289.924 283.263 289.958 283.346C289.992 283.429 290.042 283.503 290.105 283.567C290.169 283.631 290.242 283.681 290.325 283.716C290.408 283.751 290.496 283.768 290.586 283.769C290.676 283.77 290.764 283.753 290.847 283.719C290.93 283.684 291.005 283.636 291.069 283.572L316.063 258.808C316.699 258.175 317.303 257.512 317.876 256.82C318.446 256.128 318.984 255.409 319.485 254.665C319.986 253.919 320.45 253.154 320.876 252.362C321.302 251.574 321.688 250.763 322.035 249.935C322.382 249.108 322.687 248.265 322.951 247.405C323.215 246.548 323.436 245.679 323.614 244.799C323.795 243.92 323.929 243.033 324.021 242.14C324.112 241.247 324.162 240.352 324.165 239.455C324.169 238.557 324.129 237.661 324.045 236.767C323.961 235.874 323.835 234.986 323.662 234.105C323.492 233.224 323.279 232.353 323.022 231.492C322.766 230.632 322.468 229.786 322.129 228.956C321.79 228.125 321.41 227.312 320.991 226.517C320.573 225.724 320.116 224.952 319.621 224.204C319.126 223.454 318.596 222.732 318.029 222.034C317.465 221.338 316.866 220.67 316.236 220.032L316.238 220.029ZM308.572 227.625C308.182 227.235 307.777 226.864 307.352 226.513C306.928 226.162 306.487 225.832 306.029 225.524C305.574 225.217 305.103 224.932 304.618 224.671C304.133 224.408 303.636 224.171 303.128 223.959C302.621 223.746 302.104 223.558 301.577 223.397C301.05 223.234 300.517 223.098 299.977 222.988C299.438 222.878 298.893 222.796 298.346 222.74C297.797 222.682 297.249 222.653 296.698 222.65C296.146 222.648 295.597 222.672 295.049 222.723C294.501 222.774 293.956 222.854 293.414 222.957C292.874 223.062 292.339 223.194 291.812 223.351C291.284 223.507 290.765 223.69 290.256 223.899C289.744 224.107 289.246 224.339 288.76 224.597C288.272 224.853 287.799 225.134 287.338 225.437C286.88 225.741 286.436 226.066 286.008 226.414C285.579 226.76 285.169 227.128 284.779 227.515L259.947 252.119C259.883 252.183 259.832 252.255 259.797 252.338C259.764 252.423 259.745 252.51 259.745 252.599C259.745 252.689 259.761 252.777 259.795 252.86C259.829 252.944 259.879 253.019 259.941 253.082C260.005 253.147 260.08 253.197 260.163 253.232C260.246 253.267 260.334 253.284 260.424 253.284C260.513 253.285 260.6 253.267 260.685 253.234C260.768 253.2 260.842 253.151 260.906 253.087L285.738 228.483C286.099 228.135 286.476 227.807 286.871 227.495C287.264 227.185 287.672 226.892 288.094 226.622C288.516 226.351 288.95 226.1 289.396 225.871C289.842 225.643 290.299 225.435 290.765 225.251C291.232 225.066 291.706 224.905 292.188 224.766C292.669 224.628 293.157 224.513 293.65 224.422C294.145 224.33 294.641 224.263 295.141 224.222C295.64 224.178 296.141 224.16 296.642 224.166C297.144 224.172 297.644 224.201 298.143 224.257C298.642 224.311 299.137 224.391 299.628 224.493C300.118 224.595 300.603 224.722 301.082 224.874C301.561 225.023 302.03 225.195 302.492 225.392C302.954 225.586 303.405 225.804 303.846 226.044C304.285 226.284 304.714 226.545 305.13 226.825C305.544 227.107 305.946 227.407 306.331 227.729C306.717 228.049 307.088 228.388 307.441 228.744C307.793 229.1 308.128 229.474 308.444 229.861C308.762 230.249 309.058 230.654 309.336 231.071C309.613 231.489 309.87 231.92 310.107 232.363C310.342 232.805 310.556 233.258 310.747 233.723C310.938 234.186 311.107 234.657 311.252 235.138C311.398 235.617 311.52 236.102 311.619 236.596C311.717 237.087 311.791 237.581 311.841 238.082C311.891 238.58 311.917 239.082 311.917 239.583C311.92 240.085 311.896 240.585 311.849 241.085C311.803 241.584 311.731 242.078 311.635 242.573C311.539 243.065 311.419 243.551 311.278 244.033C311.135 244.513 310.969 244.986 310.78 245.45C310.591 245.915 310.379 246.37 310.147 246.814C309.913 247.257 309.659 247.689 309.385 248.109C309.109 248.527 308.814 248.934 308.5 249.324C308.185 249.716 307.852 250.089 307.501 250.447L282.669 275.051C282.605 275.115 282.556 275.189 282.521 275.272C282.486 275.355 282.468 275.442 282.468 275.533C282.468 275.622 282.484 275.711 282.518 275.794C282.553 275.877 282.601 275.952 282.665 276.016C282.728 276.08 282.802 276.129 282.885 276.164C282.968 276.199 283.056 276.216 283.146 276.216C283.237 276.218 283.324 276.201 283.407 276.166C283.49 276.132 283.565 276.084 283.629 276.02L308.461 251.416C308.852 251.029 309.222 250.621 309.573 250.197C309.925 249.772 310.255 249.332 310.562 248.876C310.87 248.418 311.155 247.947 311.417 247.463C311.679 246.977 311.916 246.482 312.129 245.974C312.343 245.465 312.53 244.949 312.692 244.422C312.853 243.895 312.99 243.362 313.1 242.823C313.211 242.282 313.294 241.739 313.349 241.19C313.407 240.642 313.436 240.093 313.439 239.543C313.443 238.991 313.417 238.441 313.366 237.893C313.316 237.344 313.237 236.799 313.132 236.258C313.027 235.718 312.897 235.184 312.74 234.655C312.582 234.128 312.4 233.608 312.192 233.099C311.983 232.587 311.751 232.089 311.494 231.603C311.237 231.115 310.957 230.642 310.653 230.181C310.349 229.723 310.024 229.279 309.678 228.85C309.331 228.422 308.963 228.012 308.576 227.622L308.572 227.625Z" fill="white"/>
</g>
<mask id="mask1_1_407" style="mask-type:luminance" maskUnits="userSpaceOnUse" x="7" y="212" width="7" height="6">
<path d="M10.3623 212.249L13.1696 215.057L10.2637 217.962L7.45636 215.155L10.3623 212.249Z" fill="white"/>
</mask>
<g mask="url(#mask1_1_407)">
<path d="M11.4629 216.493C10.7239 217.232 9.52618 217.232 8.78715 216.493C8.04811 215.754 8.04811 214.556 8.78715 213.817C9.52445 213.08 10.7221 213.08 11.4612 213.819C12.2002 214.558 12.2002 215.756 11.4629 216.493Z" fill="white"/>
</g>
<mask id="mask2_1_407" style="mask-type:luminance" maskUnits="userSpaceOnUse" x="14" y="219" width="7" height="7">
<path d="M17.6001 219.487L20.7016 222.588L17.7957 225.494L14.6942 222.393L17.6001 219.487Z" fill="white"/>
</mask>
<g mask="url(#mask2_1_407)">
<path d="M19.104 224.134C18.365 224.873 17.1673 224.873 16.4282 224.134C15.6909 223.397 15.6909 222.199 16.43 221.46C17.1673 220.723 18.365 220.723 19.1023 221.46C19.8413 222.199 19.8413 223.397 19.104 224.134Z" fill="white"/>
</g>
<mask id="mask3_1_407" style="mask-type:luminance" maskUnits="userSpaceOnUse" x="22" y="227" width="7" height="7">
<path d="M25.5757 227.462L28.6772 230.564L25.7713 233.47L22.6697 230.368L25.5757 227.462Z" fill="white"/>
</mask>
<g mask="url(#mask3_1_407)">
<path d="M26.7473 231.777C26.0083 232.516 24.8106 232.516 24.0716 231.777C23.3325 231.038 23.3325 229.84 24.0716 229.101C24.8089 228.364 26.0066 228.364 26.7456 229.103C27.4846 229.842 27.4846 231.039 26.7473 231.777Z" fill="white"/>
</g>
<mask id="mask4_1_407" style="mask-type:luminance" maskUnits="userSpaceOnUse" x="30" y="234" width="7" height="8">
<path d="M33.1077 234.994L36.2092 238.096L33.3032 241.002L30.2017 237.9L33.1077 234.994Z" fill="white"/>
</mask>
<g mask="url(#mask4_1_407)">
<path d="M34.3882 239.419C33.6491 240.158 32.4515 240.158 31.7124 239.419C30.9751 238.681 30.9751 237.484 31.7141 236.745C32.4515 236.007 33.6491 236.007 34.3864 236.745C35.1255 237.484 35.1255 238.681 34.3882 239.419Z" fill="white"/>
</g>
<mask id="mask5_1_407" style="mask-type:luminance" maskUnits="userSpaceOnUse" x="37" y="242" width="7" height="7">
<path d="M40.6401 242.527L43.7417 245.628L40.8357 248.534L37.7342 245.433L40.6401 242.527Z" fill="white"/>
</mask>
<g mask="url(#mask5_1_407)">
<path d="M42.0313 247.062C41.2922 247.801 40.0945 247.801 39.3555 247.062C38.6165 246.323 38.6165 245.125 39.3555 244.386C40.0928 243.649 41.2905 243.649 42.0295 244.388C42.7686 245.127 42.7686 246.324 42.0313 247.062Z" fill="white"/>
</g>
<mask id="mask6_1_407" style="mask-type:luminance" maskUnits="userSpaceOnUse" x="45" y="250" width="7" height="7">
<path d="M48.1724 250.059L51.2739 253.16L48.3679 256.066L45.2664 252.965L48.1724 250.059Z" fill="white"/>
</mask>
<g mask="url(#mask6_1_407)">
<path d="M49.6726 254.703C48.9336 255.442 47.7359 255.442 46.9968 254.703C46.2595 253.965 46.2595 252.768 46.9986 252.029C47.7359 251.291 48.9336 251.291 49.6709 252.029C50.4099 252.768 50.4099 253.965 49.6726 254.703Z" fill="white"/>
</g>
<mask id="mask7_1_407" style="mask-type:luminance" maskUnits="userSpaceOnUse" x="53" y="258" width="7" height="7">
<path d="M56.1477 258.034L59.2492 261.136L56.3433 264.042L53.2418 260.94L56.1477 258.034Z" fill="white"/>
</mask>
<g mask="url(#mask7_1_407)">
<path d="M57.3157 262.345C56.5766 263.084 55.379 263.084 54.6399 262.345C53.9009 261.606 53.9009 260.408 54.6399 259.669C55.3772 258.932 56.5749 258.932 57.314 259.671C58.053 260.41 58.053 261.608 57.3157 262.345Z" fill="white"/>
</g>
<mask id="mask8_1_407" style="mask-type:luminance" maskUnits="userSpaceOnUse" x="60" y="265" width="7" height="7">
<path d="M63.6799 265.567L66.7815 268.668L63.8755 271.574L60.774 268.473L63.6799 265.567Z" fill="white"/>
</mask>
<g mask="url(#mask8_1_407)">
<path d="M64.9573 269.987C64.2182 270.726 63.0205 270.726 62.2832 269.989C61.5442 269.25 61.5442 268.052 62.2832 267.313C63.0205 266.576 64.2182 266.576 64.9573 267.315C65.6946 268.052 65.6946 269.25 64.9573 269.987Z" fill="white"/>
</g>
<mask id="mask9_1_407" style="mask-type:luminance" maskUnits="userSpaceOnUse" x="68" y="273" width="7" height="7">
<path d="M71.2122 273.099L74.3137 276.201L71.4077 279.107L68.3062 276.005L71.2122 273.099Z" fill="white"/>
</mask>
<g mask="url(#mask9_1_407)">
<path d="M72.6001 277.631C71.861 278.37 70.6634 278.37 69.9243 277.631C69.187 276.893 69.187 275.696 69.9261 274.957C70.6634 274.219 71.861 274.219 72.5984 274.957C73.3374 275.696 73.3374 276.893 72.6001 277.631Z" fill="white"/>
</g>
<mask id="mask10_1_407" style="mask-type:luminance" maskUnits="userSpaceOnUse" x="75" y="280" width="7" height="7">
<path d="M78.7446 280.632L81.8461 283.733L78.9402 286.639L75.8387 283.537L78.7446 280.632Z" fill="white"/>
</mask>
<g mask="url(#mask10_1_407)">
<path d="M80.2432 285.274C79.5041 286.013 78.3065 286.013 77.5674 285.274C76.8284 284.535 76.8284 283.337 77.5674 282.598C78.3047 281.861 79.5024 281.861 80.2414 282.6C80.9805 283.339 80.9805 284.537 80.2432 285.274Z" fill="white"/>
</g>
<mask id="mask11_1_407" style="mask-type:luminance" maskUnits="userSpaceOnUse" x="83" y="288" width="7" height="7">
<path d="M86.7197 288.607L89.8212 291.708L86.9153 294.614L83.8138 291.513L86.7197 288.607Z" fill="white"/>
</mask>
<g mask="url(#mask11_1_407)">
<path d="M87.8843 292.915C87.1452 293.654 85.9475 293.654 85.2102 292.917C84.4712 292.178 84.4712 290.98 85.2102 290.241C85.9475 289.504 87.1452 289.504 87.8843 290.243C88.6216 290.98 88.6216 292.178 87.8843 292.915Z" fill="white"/>
</g>
<mask id="mask12_1_407" style="mask-type:luminance" maskUnits="userSpaceOnUse" x="91" y="296" width="7" height="7">
<path d="M94.252 296.139L97.3535 299.24L94.4475 302.146L91.346 299.045L94.252 296.139Z" fill="white"/>
</mask>
<g mask="url(#mask12_1_407)">
<path d="M95.5274 300.558C94.7883 301.297 93.5906 301.297 92.8516 300.558C92.1126 299.819 92.1126 298.621 92.8516 297.882C93.5889 297.145 94.7866 297.145 95.5256 297.884C96.2647 298.623 96.2647 299.821 95.5274 300.558Z" fill="white"/>
</g>
<mask id="mask13_1_407" style="mask-type:luminance" maskUnits="userSpaceOnUse" x="98" y="303" width="7" height="7">
<path d="M101.784 303.671L104.886 306.773L101.98 309.678L98.8785 306.577L101.784 303.671Z" fill="white"/>
</mask>
<g mask="url(#mask13_1_407)">
<path d="M103.169 308.199C102.43 308.938 101.232 308.938 100.495 308.201C99.7559 307.462 99.7559 306.264 100.495 305.525C101.232 304.788 102.43 304.788 103.169 305.527C103.906 306.264 103.906 307.462 103.169 308.199Z" fill="white"/>
</g>
<mask id="mask14_1_407" style="mask-type:luminance" maskUnits="userSpaceOnUse" x="106" y="311" width="7" height="7">
<path d="M109.316 311.203L112.38 314.267L109.474 317.173L106.41 314.109L109.316 311.203Z" fill="white"/>
</mask>
<g mask="url(#mask14_1_407)">
<path d="M110.812 315.842C110.072 316.581 108.875 316.581 108.136 315.842C107.397 315.103 107.397 313.905 108.136 313.166C108.873 312.429 110.071 312.429 110.81 313.168C111.549 313.907 111.549 315.105 110.812 315.842Z" fill="white"/>
</g>
<mask id="mask15_1_407" style="mask-type:luminance" maskUnits="userSpaceOnUse" x="14" y="204" width="7" height="7">
<path d="M17.8945 204.716L20.7018 207.523L17.6003 210.625L14.793 207.818L17.8945 204.716Z" fill="white"/>
</mask>
<g mask="url(#mask15_1_407)">
<path d="M19.104 208.852C18.3667 209.589 17.169 209.589 16.43 208.85C15.6909 208.111 15.6909 206.913 16.4282 206.176C17.1673 205.437 18.365 205.437 19.104 206.176C19.843 206.915 19.843 208.113 19.104 208.852Z" fill="white"/>
</g>
<path d="M26.7458 216.492C26.0085 217.23 24.8108 217.23 24.0718 216.491C23.3345 215.753 23.3345 214.556 24.0718 213.818C24.8108 213.079 26.0085 213.079 26.7458 213.817C27.4848 214.556 27.4848 215.753 26.7458 216.492Z" fill="white"/>
<path d="M34.3889 224.135C33.6516 224.873 32.4539 224.873 31.7149 224.134C30.9758 223.395 30.9758 222.197 31.7131 221.46C32.4522 220.721 33.6499 220.721 34.3889 221.46C35.1279 222.199 35.1279 223.396 34.3889 224.135Z" fill="white"/>
<path d="M42.03 231.777C41.2927 232.515 40.095 232.515 39.356 231.775C38.6187 231.038 38.6187 229.84 39.356 229.103C40.095 228.364 41.2927 228.364 42.03 229.101C42.769 229.84 42.769 231.038 42.03 231.777Z" fill="white"/>
<path d="M49.6731 239.42C48.9358 240.158 47.7381 240.158 46.9991 239.419C46.26 238.679 46.26 237.482 46.9973 236.744C47.7364 236.005 48.934 236.005 49.6731 236.744C50.4121 237.484 50.4121 238.681 49.6731 239.42Z" fill="white"/>
<path d="M57.3144 247.061C56.5771 247.798 55.3794 247.798 54.6404 247.059C53.9031 246.322 53.9031 245.124 54.6404 244.387C55.3794 243.648 56.5771 243.648 57.3144 244.385C58.0535 245.124 58.0535 246.322 57.3144 247.061Z" fill="white"/>
<path d="M64.9575 254.704C64.2202 255.441 63.0225 255.441 62.2835 254.702C61.5444 253.963 61.5444 252.766 62.2818 252.028C63.0208 251.289 64.2185 251.289 64.9575 252.028C65.6965 252.767 65.6965 253.965 64.9575 254.704Z" fill="white"/>
<path d="M72.5986 262.346C71.8613 263.083 70.6636 263.083 69.9263 262.346C69.1873 261.606 69.1873 260.409 69.9246 259.671C70.6636 258.932 71.8613 258.932 72.6003 259.671C73.3376 260.409 73.3376 261.606 72.5986 262.346Z" fill="white"/>
<path d="M80.2417 269.989C79.5044 270.726 78.3067 270.726 77.5676 269.987C76.8303 269.25 76.8303 268.052 77.5676 267.315C78.3067 266.576 79.5044 266.576 80.2417 267.313C80.9807 268.052 80.9807 269.25 80.2417 269.989Z" fill="white"/>
<path d="M87.8848 277.631C87.1474 278.368 85.9498 278.368 85.2107 277.629C84.4717 276.89 84.4717 275.693 85.209 274.955C85.948 274.216 87.1457 274.216 87.8848 274.955C88.6238 275.694 88.6238 276.892 87.8848 277.631Z" fill="white"/>
<path d="M95.5261 285.273C94.7888 286.01 93.5911 286.01 92.8538 285.273C92.1148 284.534 92.1148 283.336 92.8521 282.599C93.5911 281.86 94.7888 281.86 95.5278 282.599C96.2651 283.336 96.2651 284.534 95.5261 285.273Z" fill="white"/>
<path d="M103.169 292.916C102.432 293.653 101.234 293.653 100.495 292.914C99.7561 292.175 99.7561 290.978 100.493 290.24C101.232 289.501 102.43 289.501 103.169 290.24C103.908 290.979 103.908 292.177 103.169 292.916Z" fill="white"/>
<path d="M110.811 300.557C110.073 301.295 108.876 301.295 108.138 300.557C107.399 299.818 107.399 298.621 108.136 297.883C108.876 297.144 110.073 297.144 110.812 297.883C111.55 298.621 111.55 299.818 110.811 300.557Z" fill="white"/>
<mask id="mask16_1_407" style="mask-type:luminance" maskUnits="userSpaceOnUse" x="22" y="197" width="7" height="7">
<path d="M25.427 197.184L28.2343 199.991L25.1328 203.093L22.3255 200.286L25.427 197.184Z" fill="white"/>
</mask>
<g mask="url(#mask16_1_407)">
<path d="M26.7475 201.208C26.0085 201.947 24.8108 201.947 24.0718 201.208C23.3328 200.469 23.3328 199.271 24.0718 198.532C24.8108 197.793 26.0085 197.793 26.7475 198.532C27.4866 199.271 27.4866 200.469 26.7475 201.208Z" fill="white"/>
</g>
<path d="M34.3886 208.849C33.6496 209.588 32.4519 209.588 31.7129 208.849C30.9756 208.112 30.9756 206.914 31.7146 206.175C32.4536 205.436 33.6513 205.436 34.3886 206.174C35.1277 206.913 35.1277 208.11 34.3886 208.849Z" fill="white"/>
<path d="M42.0317 216.492C41.2927 217.231 40.095 217.231 39.356 216.492C38.6169 215.753 38.6169 214.556 39.356 213.817C40.095 213.078 41.2927 213.078 42.0317 213.817C42.7708 214.556 42.7708 215.753 42.0317 216.492Z" fill="white"/>
<path d="M49.6731 224.134C48.934 224.873 47.7363 224.873 46.9973 224.134C46.26 223.396 46.26 222.199 46.999 221.46C47.7381 220.721 48.9358 220.721 49.6731 221.458C50.4121 222.197 50.4121 223.395 49.6731 224.134Z" fill="white"/>
<path d="M57.3161 231.777C56.5771 232.516 55.3794 232.516 54.6404 231.777C53.9014 231.038 53.9014 229.84 54.6404 229.101C55.3794 228.362 56.5771 228.362 57.3161 229.101C58.0552 229.84 58.0552 231.038 57.3161 231.777Z" fill="white"/>
<path d="M64.9575 239.419C64.2184 240.158 63.0208 240.158 62.2817 239.419C61.5444 238.681 61.5444 237.484 62.2835 236.744C63.0225 236.005 64.2202 236.005 64.9575 236.743C65.6965 237.482 65.6965 238.679 64.9575 239.419Z" fill="white"/>
<path d="M72.6003 247.062C71.8613 247.801 70.6636 247.801 69.9246 247.062C69.1855 246.323 69.1855 245.125 69.9246 244.386C70.6636 243.647 71.8613 243.647 72.6003 244.386C73.3394 245.125 73.3394 246.323 72.6003 247.062Z" fill="white"/>
<path d="M80.2417 254.702C79.5026 255.441 78.3049 255.441 77.5676 254.704C76.8286 253.965 76.8286 252.767 77.5676 252.028C78.3067 251.289 79.5044 251.289 80.2434 252.028C80.9807 252.766 80.9807 253.963 80.2417 254.702Z" fill="white"/>
<path d="M87.8847 262.346C87.1457 263.085 85.948 263.085 85.209 262.346C84.4717 261.608 84.4717 260.411 85.2107 259.671C85.9497 258.932 87.1474 258.932 87.8847 259.67C88.6238 260.409 88.6238 261.606 87.8847 262.346Z" fill="white"/>
<path d="M95.5276 269.989C94.7885 270.728 93.5909 270.728 92.8518 269.989C92.1128 269.25 92.1128 268.052 92.8518 267.313C93.5909 266.574 94.7885 266.574 95.5276 267.313C96.2666 268.052 96.2666 269.25 95.5276 269.989Z" fill="white"/>
<path d="M103.169 277.629C102.43 278.368 101.232 278.368 100.495 277.631C99.7561 276.892 99.7561 275.694 100.495 274.955C101.234 274.216 102.432 274.216 103.171 274.955C103.908 275.693 103.908 276.89 103.169 277.629Z" fill="white"/>
<path d="M110.812 285.273C110.073 286.012 108.876 286.012 108.136 285.273C107.397 284.534 107.397 283.336 108.136 282.597C108.876 281.858 110.073 281.858 110.812 282.597C111.551 283.336 111.551 284.534 110.812 285.273Z" fill="white"/>
<mask id="mask17_1_407" style="mask-type:luminance" maskUnits="userSpaceOnUse" x="30" y="189" width="7" height="7">
<path d="M33.4023 189.209L36.2096 192.016L33.1081 195.118L30.3008 192.31L33.4023 189.209Z" fill="white"/>
</mask>
<g mask="url(#mask17_1_407)">
<path d="M34.3889 193.567C33.6499 194.306 32.4539 194.304 31.7149 193.565C30.9758 192.826 30.9741 191.63 31.7131 190.891C32.4522 190.152 33.6499 190.152 34.3889 190.891C35.1279 191.63 35.1279 192.828 34.3889 193.567Z" fill="white"/>
</g>
<path d="M42.03 201.208C41.291 201.947 40.095 201.945 39.356 201.206C38.6187 200.469 38.6169 199.273 39.356 198.534C40.095 197.795 41.2927 197.795 42.03 198.532C42.769 199.271 42.769 200.469 42.03 201.208Z" fill="white"/>
<path d="M49.6731 208.851C48.934 209.59 47.7381 209.588 46.9991 208.849C46.26 208.11 46.2583 206.914 46.9973 206.175C47.7364 205.436 48.934 205.436 49.6731 206.175C50.4121 206.914 50.4121 208.112 49.6731 208.851Z" fill="white"/>
<path d="M57.3144 216.492C56.5754 217.231 55.3794 217.23 54.6404 216.491C53.9031 215.753 53.9014 214.557 54.6404 213.818C55.3794 213.079 56.5771 213.079 57.3144 213.817C58.0535 214.556 58.0535 215.753 57.3144 216.492Z" fill="white"/>
<path d="M64.9573 224.135C64.2182 224.874 63.0223 224.873 62.2832 224.134C61.5442 223.395 61.5425 222.199 62.2815 221.46C63.0205 220.721 64.2182 220.721 64.9573 221.46C65.6963 222.199 65.6963 223.396 64.9573 224.135Z" fill="white"/>
<path d="M72.5986 231.777C71.8596 232.516 70.6636 232.515 69.9246 231.775C69.1873 231.038 69.1855 229.842 69.9246 229.103C70.6636 228.364 71.8613 228.364 72.5986 229.101C73.3376 229.84 73.3376 231.038 72.5986 231.777Z" fill="white"/>
<path d="M80.2417 239.42C79.5027 240.159 78.3067 240.158 77.5677 239.419C76.8286 238.679 76.8269 237.484 77.5659 236.744C78.305 236.005 79.5027 236.005 80.2417 236.744C80.9807 237.484 80.9807 238.681 80.2417 239.42Z" fill="white"/>
<path d="M87.8833 247.061C87.1442 247.8 85.9483 247.798 85.211 247.061C84.4719 246.322 84.4702 245.126 85.2092 244.387C85.9483 243.648 87.146 243.648 87.885 244.387C88.6223 245.124 88.6223 246.322 87.8833 247.061Z" fill="white"/>
<path d="M95.5261 254.704C94.7871 255.443 93.5911 255.442 92.8521 254.702C92.1148 253.965 92.113 252.769 92.8521 252.03C93.5911 251.291 94.7888 251.291 95.5261 252.028C96.2651 252.768 96.2651 253.965 95.5261 254.704Z" fill="white"/>
<path d="M103.169 262.347C102.43 263.086 101.234 263.085 100.495 262.346C99.7561 261.606 99.7544 260.411 100.493 259.671C101.232 258.932 102.43 258.932 103.169 259.671C103.908 260.411 103.908 261.608 103.169 262.347Z" fill="white"/>
<path d="M110.811 269.988C110.071 270.727 108.876 270.725 108.138 269.988C107.399 269.249 107.397 268.053 108.136 267.314C108.876 266.575 110.073 266.575 110.812 267.314C111.55 268.051 111.55 269.249 110.811 269.988Z" fill="white"/>
<mask id="mask18_1_407" style="mask-type:luminance" maskUnits="userSpaceOnUse" x="37" y="181" width="7" height="7">
<path d="M40.9341 181.677L43.7414 184.484L40.6399 187.586L37.8326 184.778L40.9341 181.677Z" fill="white"/>
</mask>
<g mask="url(#mask18_1_407)">
<path d="M42.031 185.924C41.292 186.663 40.0943 186.663 39.3552 185.924C38.6162 185.185 38.6162 183.988 39.3552 183.249C40.0943 182.51 41.292 182.51 42.031 183.249C42.77 183.988 42.77 185.185 42.031 185.924Z" fill="white"/>
</g>
<path d="M49.6733 193.565C48.9343 194.304 47.7366 194.304 46.9976 193.565C46.2602 192.828 46.2602 191.63 46.9993 190.891C47.7383 190.152 48.936 190.152 49.6733 190.89C50.4123 191.629 50.4123 192.826 49.6733 193.565Z" fill="white"/>
<path d="M57.3164 201.208C56.5774 201.947 55.3797 201.947 54.6406 201.208C53.9016 200.469 53.9016 199.271 54.6406 198.532C55.3797 197.793 56.5774 197.793 57.3164 198.532C58.0554 199.271 58.0554 200.469 57.3164 201.208Z" fill="white"/>
<path d="M64.9577 208.849C64.2187 209.588 63.021 209.588 62.282 208.849C61.5447 208.112 61.5447 206.914 62.2837 206.175C63.0227 205.436 64.2204 205.436 64.9577 206.174C65.6968 206.913 65.6968 208.11 64.9577 208.849Z" fill="white"/>
<path d="M72.6006 216.492C71.8615 217.231 70.6639 217.231 69.9248 216.492C69.1858 215.753 69.1858 214.556 69.9248 213.817C70.6639 213.078 71.8615 213.078 72.6006 213.817C73.3396 214.556 73.3396 215.753 72.6006 216.492Z" fill="white"/>
<path d="M80.2419 224.134C79.5029 224.873 78.3052 224.873 77.5662 224.134C76.8289 223.396 76.8289 222.199 77.5679 221.46C78.3069 220.721 79.5046 220.721 80.2419 221.458C80.9809 222.197 80.9809 223.395 80.2419 224.134Z" fill="white"/>
<path d="M87.885 231.777C87.146 232.516 85.9483 232.516 85.2092 231.777C84.4702 231.038 84.4702 229.84 85.2092 229.101C85.9483 228.362 87.146 228.362 87.885 229.101C88.624 229.84 88.624 231.038 87.885 231.777Z" fill="white"/>
<path d="M95.5263 239.418C94.7873 240.157 93.5896 240.157 92.8523 239.419C92.1133 238.68 92.1133 237.483 92.8523 236.744C93.5913 236.005 94.789 236.005 95.5281 236.744C96.2654 237.481 96.2654 238.679 95.5263 239.418Z" fill="white"/>
<path d="M103.169 247.061C102.43 247.8 101.233 247.8 100.494 247.061C99.7563 246.324 99.7563 245.126 100.495 244.387C101.234 243.648 102.432 243.648 103.169 244.385C103.908 245.124 103.908 246.322 103.169 247.061Z" fill="white"/>
<path d="M110.812 254.704C110.073 255.443 108.876 255.443 108.136 254.704C107.397 253.965 107.397 252.767 108.136 252.028C108.876 251.289 110.073 251.289 110.812 252.028C111.551 252.767 111.551 253.965 110.812 254.704Z" fill="white"/>
<mask id="mask19_1_407" style="mask-type:luminance" maskUnits="userSpaceOnUse" x="45" y="174" width="7" height="7">
<path d="M48.4666 174.144L51.2738 176.951L48.1723 180.053L45.365 177.246L48.4666 174.144Z" fill="white"/>
</mask>
<g mask="url(#mask19_1_407)">
<path d="M49.6726 178.283C48.9353 179.02 47.7376 179.02 46.9986 178.281C46.2595 177.542 46.2595 176.344 46.9968 175.607C47.7359 174.868 48.9336 174.868 49.6726 175.607C50.4116 176.346 50.4116 177.543 49.6726 178.283Z" fill="white"/>
</g>
<path d="M57.3144 185.924C56.5771 186.661 55.3794 186.661 54.6404 185.922C53.9031 185.185 53.9031 183.987 54.6404 183.25C55.3794 182.511 56.5771 182.511 57.3144 183.248C58.0535 183.987 58.0535 185.185 57.3144 185.924Z" fill="white"/>
<path d="M64.9573 193.567C64.22 194.304 63.0223 194.304 62.2832 193.565C61.5442 192.826 61.5442 191.629 62.2815 190.891C63.0205 190.152 64.2182 190.152 64.9573 190.891C65.6963 191.63 65.6963 192.828 64.9573 193.567Z" fill="white"/>
<path d="M72.5986 201.208C71.8613 201.945 70.6636 201.945 69.9246 201.206C69.1873 200.469 69.1873 199.271 69.9246 198.534C70.6636 197.795 71.8613 197.795 72.5986 198.532C73.3376 199.271 73.3376 200.469 72.5986 201.208Z" fill="white"/>
<path d="M80.2417 208.851C79.5044 209.588 78.3067 209.588 77.5677 208.849C76.8286 208.11 76.8286 206.913 77.5659 206.175C78.305 205.436 79.5027 205.436 80.2417 206.175C80.9807 206.914 80.9807 208.112 80.2417 208.851Z" fill="white"/>
<path d="M87.883 216.493C87.1457 217.231 85.948 217.231 85.209 216.492C84.4717 215.754 84.4717 214.557 85.209 213.819C85.948 213.08 87.1457 213.08 87.883 213.818C88.6221 214.557 88.6221 215.754 87.883 216.493Z" fill="white"/>
<path d="M95.5261 224.135C94.7888 224.873 93.5911 224.873 92.8521 224.134C92.1131 223.395 92.1131 222.197 92.8504 221.46C93.5894 220.721 94.7871 220.721 95.5261 221.46C96.2651 222.199 96.2651 223.396 95.5261 224.135Z" fill="white"/>
<path d="M103.167 231.777C102.43 232.515 101.232 232.515 100.495 231.777C99.7561 231.038 99.7561 229.84 100.493 229.103C101.232 228.364 102.43 228.364 103.169 229.103C103.906 229.84 103.906 231.038 103.167 231.777Z" fill="white"/>
<path d="M110.811 239.42C110.073 240.157 108.876 240.157 108.136 239.418C107.399 238.681 107.399 237.483 108.136 236.746C108.876 236.007 110.073 236.007 110.811 236.744C111.55 237.483 111.55 238.681 110.811 239.42Z" fill="white"/>
<mask id="mask20_1_407" style="mask-type:luminance" maskUnits="userSpaceOnUse" x="52" y="166" width="7" height="7">
<path d="M55.999 166.612L58.8063 169.42L55.7048 172.521L52.8975 169.714L55.999 166.612Z" fill="white"/>
</mask>
<g mask="url(#mask20_1_407)">
<path d="M57.3164 170.639C56.5774 171.378 55.3797 171.378 54.6406 170.639C53.9016 169.9 53.9016 168.703 54.6406 167.963C55.3797 167.224 56.5774 167.224 57.3164 167.963C58.0554 168.703 58.0554 169.9 57.3164 170.639Z" fill="white"/>
</g>
<path d="M64.9575 178.281C64.2184 179.02 63.0208 179.02 62.2817 178.281C61.5444 177.544 61.5444 176.346 62.2835 175.607C63.0225 174.868 64.2202 174.868 64.9575 175.606C65.6965 176.345 65.6965 177.542 64.9575 178.281Z" fill="white"/>
<path d="M72.6003 185.924C71.8613 186.663 70.6636 186.663 69.9246 185.924C69.1855 185.185 69.1855 183.987 69.9246 183.248C70.6636 182.509 71.8613 182.509 72.6003 183.248C73.3394 183.987 73.3394 185.185 72.6003 185.924Z" fill="white"/>
<path d="M80.2417 193.565C79.5026 194.304 78.3049 194.304 77.5659 193.565C76.8286 192.828 76.8286 191.63 77.5676 190.891C78.3067 190.152 79.5044 190.152 80.2417 190.89C80.9807 191.629 80.9807 192.826 80.2417 193.565Z" fill="white"/>
<path d="M87.8848 201.208C87.1457 201.947 85.948 201.947 85.209 201.208C84.47 200.469 84.47 199.272 85.209 198.533C85.948 197.794 87.1457 197.794 87.8848 198.533C88.6238 199.272 88.6238 200.469 87.8848 201.208Z" fill="white"/>
<path d="M95.5258 208.849C94.7868 209.588 93.5891 209.588 92.8501 208.849C92.1128 208.112 92.1128 206.914 92.8518 206.175C93.5909 205.436 94.7885 205.436 95.5258 206.174C96.2649 206.913 96.2649 208.11 95.5258 208.849Z" fill="white"/>
<path d="M103.169 216.492C102.43 217.231 101.232 217.231 100.493 216.492C99.7544 215.753 99.7544 214.556 100.493 213.817C101.232 213.078 102.43 213.078 103.169 213.817C103.908 214.556 103.908 215.753 103.169 216.492Z" fill="white"/>
<path d="M110.81 224.134C110.071 224.873 108.874 224.873 108.136 224.136C107.397 223.397 107.397 222.199 108.136 221.46C108.875 220.721 110.073 220.721 110.812 221.46C111.549 222.197 111.549 223.395 110.81 224.134Z" fill="white"/>
<mask id="mask21_1_407" style="mask-type:luminance" maskUnits="userSpaceOnUse" x="60" y="158" width="7" height="7">
<path d="M63.9744 158.636L66.7817 161.443L63.6801 164.545L60.8728 161.738L63.9744 158.636Z" fill="white"/>
</mask>
<g mask="url(#mask21_1_407)">
<path d="M64.957 162.998C64.2197 163.735 63.022 163.735 62.283 162.996C61.544 162.257 61.544 161.059 62.2813 160.322C63.0203 159.583 64.218 159.583 64.957 160.322C65.6961 161.061 65.6961 162.259 64.957 162.998Z" fill="white"/>
</g>
<path d="M72.5986 170.64C71.8613 171.377 70.6636 171.377 69.9246 170.638C69.1873 169.901 69.1873 168.703 69.9246 167.966C70.6636 167.227 71.8613 167.227 72.5986 167.964C73.3376 168.703 73.3376 169.901 72.5986 170.64Z" fill="white"/>
<path d="M80.2417 178.283C79.5044 179.021 78.3067 179.021 77.5677 178.281C76.8286 177.542 76.8286 176.345 77.5659 175.607C78.305 174.868 79.5027 174.868 80.2417 175.607C80.9807 176.346 80.9807 177.544 80.2417 178.283Z" fill="white"/>
<path d="M87.883 185.924C87.1457 186.661 85.948 186.661 85.209 185.922C84.4717 185.185 84.4717 183.987 85.209 183.25C85.948 182.511 87.1457 182.511 87.883 183.248C88.6221 183.987 88.6221 185.185 87.883 185.924Z" fill="white"/>
<path d="M95.5261 193.567C94.7888 194.304 93.5911 194.304 92.8521 193.565C92.1131 192.826 92.1131 191.629 92.8504 190.891C93.5894 190.152 94.7871 190.152 95.5261 190.891C96.2651 191.63 96.2651 192.828 95.5261 193.567Z" fill="white"/>
<path d="M103.167 201.208C102.43 201.945 101.232 201.945 100.493 201.206C99.7561 200.469 99.7561 199.271 100.493 198.534C101.232 197.795 102.43 197.795 103.167 198.532C103.906 199.271 103.906 200.469 103.167 201.208Z" fill="white"/>
<path d="M110.811 208.851C110.073 209.588 108.876 209.588 108.137 208.849C107.397 208.11 107.397 206.913 108.135 206.175C108.874 205.436 110.071 205.436 110.811 206.175C111.55 206.914 111.55 208.112 110.811 208.851Z" fill="white"/>
<mask id="mask22_1_407" style="mask-type:luminance" maskUnits="userSpaceOnUse" x="68" y="151" width="7" height="7">
<path d="M71.5063 151.105L74.3136 153.912L71.2121 157.014L68.4048 154.207L71.5063 151.105Z" fill="white"/>
</mask>
<g mask="url(#mask22_1_407)">
<path d="M72.6006 155.356C71.8615 156.095 70.6639 156.095 69.9248 155.356C69.1858 154.616 69.1858 153.419 69.9248 152.68C70.6639 151.941 71.8615 151.941 72.6006 152.68C73.3396 153.419 73.3396 154.616 72.6006 155.356Z" fill="white"/>
</g>
<path d="M80.2417 162.997C79.5026 163.736 78.3049 163.736 77.5659 162.997C76.8286 162.259 76.8286 161.062 77.5676 160.323C78.3067 159.584 79.5044 159.584 80.2417 160.321C80.9807 161.06 80.9807 162.258 80.2417 162.997Z" fill="white"/>
<path d="M87.8848 170.64C87.1457 171.379 85.948 171.379 85.209 170.64C84.47 169.901 84.47 168.703 85.209 167.964C85.948 167.225 87.1457 167.225 87.8848 167.964C88.6238 168.703 88.6238 169.901 87.8848 170.64Z" fill="white"/>
<path d="M95.5258 178.281C94.7868 179.021 93.5891 179.021 92.8501 178.281C92.1128 177.544 92.1128 176.346 92.8518 175.607C93.5909 174.868 94.7885 174.868 95.5258 175.606C96.2649 176.345 96.2649 177.542 95.5258 178.281Z" fill="white"/>
<path d="M103.169 185.924C102.43 186.663 101.232 186.663 100.493 185.924C99.7541 185.185 99.7541 183.987 100.493 183.248C101.232 182.509 102.43 182.509 103.169 183.248C103.908 183.987 103.908 185.185 103.169 185.924Z" fill="white"/>
<path d="M110.81 193.565C110.071 194.304 108.874 194.304 108.135 193.565C107.397 192.828 107.397 191.63 108.136 190.891C108.875 190.152 110.073 190.152 110.81 190.89C111.549 191.629 111.549 192.826 110.81 193.565Z" fill="white"/>
<mask id="mask23_1_407" style="mask-type:luminance" maskUnits="userSpaceOnUse" x="75" y="143" width="7" height="7">
<path d="M79.0388 143.572L81.8461 146.379L78.7446 149.481L75.9373 146.673L79.0388 143.572Z" fill="white"/>
</mask>
<g mask="url(#mask23_1_407)">
<path d="M80.2439 147.712C79.5049 148.451 78.3072 148.451 77.5682 147.712C76.8291 146.973 76.8291 145.775 77.5682 145.036C78.3055 144.299 79.5031 144.299 80.2422 145.038C80.9812 145.777 80.9812 146.975 80.2439 147.712Z" fill="white"/>
</g>
<path d="M87.8848 155.354C87.1457 156.093 85.948 156.093 85.209 155.354C84.4717 154.616 84.4717 153.419 85.2107 152.68C85.948 151.942 87.1457 151.942 87.883 152.68C88.6221 153.419 88.6221 154.616 87.8848 155.354Z" fill="white"/>
<path d="M95.5278 162.997C94.7888 163.736 93.5911 163.736 92.8521 162.997C92.1131 162.258 92.1131 161.06 92.8521 160.321C93.5894 159.584 94.7871 159.584 95.5261 160.323C96.2651 161.062 96.2651 162.259 95.5278 162.997Z" fill="white"/>
<path d="M103.169 170.638C102.43 171.377 101.232 171.377 100.493 170.638C99.7561 169.901 99.7561 168.703 100.495 167.964C101.232 167.227 102.43 167.227 103.167 167.964C103.906 168.703 103.906 169.901 103.169 170.638Z" fill="white"/>
<path d="M110.812 178.281C110.073 179.021 108.875 179.021 108.136 178.281C107.397 177.542 107.397 176.345 108.136 175.606C108.874 174.868 110.071 174.868 110.81 175.607C111.549 176.346 111.549 177.544 110.812 178.281Z" fill="white"/>
<mask id="mask24_1_407" style="mask-type:luminance" maskUnits="userSpaceOnUse" x="83" y="136" width="7" height="6">
<path d="M86.571 136.04L89.3783 138.847L86.2768 141.948L83.4695 139.141L86.571 136.04Z" fill="white"/>
</mask>
<g mask="url(#mask24_1_407)">
<path d="M87.8848 140.071C87.1474 140.808 85.9498 140.808 85.2107 140.069C84.4717 139.33 84.4717 138.132 85.209 137.395C85.948 136.656 87.1457 136.656 87.8848 137.395C88.6238 138.134 88.6238 139.332 87.8848 140.071Z" fill="white"/>
</g>
<path d="M95.5263 147.712C94.789 148.449 93.5913 148.449 92.8523 147.71C92.115 146.973 92.115 145.775 92.8523 145.038C93.5913 144.299 94.789 144.299 95.5263 145.036C96.2654 145.775 96.2654 146.973 95.5263 147.712Z" fill="white"/>
<path d="M103.169 155.355C102.432 156.093 101.234 156.093 100.495 155.354C99.7561 154.615 99.7561 153.417 100.493 152.68C101.232 151.941 102.43 151.941 103.169 152.68C103.908 153.419 103.908 154.616 103.169 155.355Z" fill="white"/>
<path d="M110.811 162.996C110.073 163.734 108.876 163.734 108.136 162.994C107.399 162.257 107.399 161.059 108.136 160.322C108.876 159.583 110.073 159.583 110.811 160.32C111.55 161.059 111.55 162.257 110.811 162.996Z" fill="white"/>
<mask id="mask25_1_407" style="mask-type:luminance" maskUnits="userSpaceOnUse" x="91" y="128" width="7" height="6">
<path d="M94.5464 128.064L97.3537 130.872L94.2522 133.973L91.4449 131.166L94.5464 128.064Z" fill="white"/>
</mask>
<g mask="url(#mask25_1_407)">
<path d="M95.5278 132.428C94.7888 133.167 93.5911 133.167 92.8521 132.428C92.113 131.689 92.113 130.491 92.8521 129.752C93.5911 129.013 94.7888 129.013 95.5278 129.752C96.2669 130.491 96.2669 131.689 95.5278 132.428Z" fill="white"/>
</g>
<path d="M103.169 140.07C102.43 140.809 101.232 140.809 100.493 140.07C99.7561 139.332 99.7561 138.135 100.495 137.396C101.234 136.657 102.432 136.657 103.169 137.394C103.908 138.133 103.908 139.331 103.169 140.07Z" fill="white"/>
<path d="M110.812 147.712C110.073 148.451 108.876 148.451 108.136 147.712C107.397 146.973 107.397 145.776 108.136 145.036C108.876 144.297 110.073 144.297 110.812 145.036C111.551 145.776 111.551 146.973 110.812 147.712Z" fill="white"/>
<mask id="mask26_1_407" style="mask-type:luminance" maskUnits="userSpaceOnUse" x="98" y="120" width="7" height="7">
<path d="M102.079 120.532L104.886 123.34L101.784 126.441L98.9771 123.634L102.079 120.532Z" fill="white"/>
</mask>
<g mask="url(#mask26_1_407)">
<path d="M103.171 124.785C102.432 125.524 101.234 125.524 100.495 124.785C99.7561 124.046 99.7561 122.848 100.495 122.109C101.232 121.372 102.43 121.372 103.169 122.111C103.908 122.85 103.908 124.048 103.171 124.785Z" fill="white"/>
</g>
<path d="M110.812 132.426C110.073 133.165 108.875 133.165 108.136 132.426C107.399 131.689 107.399 130.491 108.138 129.752C108.875 129.015 110.073 129.015 110.81 129.752C111.549 130.491 111.549 131.689 110.812 132.426Z" fill="white"/>
<mask id="mask27_1_407" style="mask-type:luminance" maskUnits="userSpaceOnUse" x="106" y="113" width="7" height="6">
<path d="M109.474 113.137L112.281 115.944L109.317 118.909L106.509 116.102L109.474 113.137Z" fill="white"/>
</mask>
<g mask="url(#mask27_1_407)">
<path d="M110.812 117.143C110.073 117.882 108.875 117.882 108.136 117.143C107.397 116.404 107.397 115.206 108.136 114.467C108.875 113.728 110.073 113.728 110.812 114.467C111.551 115.206 111.551 116.404 110.812 117.143Z" fill="white"/>
</g>
</svg>
