<svg width="533" height="584" viewBox="0 0 533 584" fill="none" xmlns="http://www.w3.org/2000/svg">
<path d="M293.232 581C292.462 582.333 290.538 582.333 289.768 581L157.699 352.25C156.929 350.917 157.892 349.25 159.431 349.25L423.569 349.25C425.108 349.25 426.071 350.917 425.301 352.25L293.232 581Z" fill="black"/>
<path d="M158.232 342C157.462 343.333 155.538 343.333 154.768 342L22.6991 113.25C21.9293 111.917 22.8915 110.25 24.4312 110.25L288.569 110.25C290.108 110.25 291.071 111.917 290.301 113.25L158.232 342Z" fill="black"/>
<path d="M212.732 431C211.962 432.333 210.038 432.333 209.268 431L165.967 356C165.197 354.667 166.159 353 167.699 353H254.301C255.841 353 256.803 354.667 256.033 356L212.732 431Z" fill="white"/>
<path d="M293.732 572C292.962 573.333 291.038 573.333 290.268 572L246.967 497C246.197 495.667 247.159 494 248.699 494H335.301C336.841 494 337.803 495.667 337.033 497L293.732 572Z" fill="white"/>
<path d="M478.732 427C477.962 428.333 476.038 428.333 475.268 427L431.967 352C431.197 350.667 432.159 349 433.699 349H520.301C521.841 349 522.803 350.667 522.033 352L478.732 427Z" fill="black"/>
<path d="M293.732 105C292.962 106.333 291.038 106.333 290.268 105L246.967 30C246.197 28.6667 247.159 27 248.699 27L335.301 27C336.841 27 337.803 28.6667 337.033 30L293.732 105Z" fill="black"/>
<path d="M432.232 342C431.462 343.333 429.538 343.333 428.768 342L343.464 194.25C342.695 192.917 343.657 191.25 345.196 191.25L515.804 191.25C517.343 191.25 518.305 192.917 517.536 194.25L432.232 342Z" fill="black"/>
<path d="M430.732 511C429.962 512.333 428.038 512.333 427.268 511L383.967 436C383.197 434.667 384.159 433 385.699 433H472.301C473.841 433 474.803 434.667 474.033 436L430.732 511Z" fill="black"/>
</svg>
